<svg width="20" height="19" viewBox="0 0 20 19" fill="none" xmlns="http://www.w3.org/2000/svg">
<path d="M10 3.011L10.01 3" stroke="#75849D" stroke-width="1.5" stroke-linecap="round" stroke-linejoin="round"/>
<path d="M14 5.011L14.01 5" stroke="#75849D" stroke-width="1.5" stroke-linecap="round" stroke-linejoin="round"/>
<path d="M6 5.011L6.01 5" stroke="#75849D" stroke-width="1.5" stroke-linecap="round" stroke-linejoin="round"/>
<path d="M16 9.011L16.01 9" stroke="#75849D" stroke-width="1.5" stroke-linecap="round" stroke-linejoin="round"/>
<path d="M4 9.011L4.01 9" stroke="#75849D" stroke-width="1.5" stroke-linecap="round" stroke-linejoin="round"/>
<path d="M15 13.011L15.01 13" stroke="#75849D" stroke-width="1.5" stroke-linecap="round" stroke-linejoin="round"/>
<path d="M5 13.011L5.01 13" stroke="#75849D" stroke-width="1.5" stroke-linecap="round" stroke-linejoin="round"/>
<path d="M10 12.6316L10.9 7.26318" stroke="#75849D" stroke-width="1.5" stroke-linecap="round" stroke-linejoin="round"/>
<path d="M6.85001 15.3167H2.80001C1.62885 13.769 0.996945 11.8841 1.00001 9.94737C1.00001 5.00574 5.02931 1 10 1C14.9707 1 19 5.00574 19 9.94737C19 11.9623 18.3304 13.8216 17.2 15.3167L13.15 15.3158" stroke="#75849D" stroke-width="1.5" stroke-linecap="round" stroke-linejoin="round"/>
<path d="M9.9998 18.0003C10.7159 18.0003 11.4026 17.7175 11.909 17.2141C12.4153 16.7107 12.6998 16.0279 12.6998 15.316C12.6998 14.6041 12.4153 13.9214 11.909 13.418C11.4026 12.9146 10.7159 12.6318 9.9998 12.6318C9.28372 12.6318 8.59696 12.9146 8.09062 13.418C7.58427 13.9214 7.2998 14.6041 7.2998 15.316C7.2998 16.0279 7.58427 16.7107 8.09062 17.2141C8.59696 17.7175 9.28372 18.0003 9.9998 18.0003V18.0003Z" stroke="#75849D" stroke-width="1.5" stroke-linecap="round" stroke-linejoin="round"/>
</svg>
