<svg id="nav-icon-list" width="20" stroke="currentColor" fill="none" height="20" viewBox="0 0 20 20">
	<g>
	<path
		d="M13 19H4C3.20435 19 2.44129 18.6839 1.87868 18.1213C1.31607 17.5587 1 16.7957 1 16V15H11V17C11 17.5304 11.2107 18.0391 11.5858 18.4142C11.9609 18.7893 12.4696 19 13 19ZM13 19C13.5304 19 14.0391 18.7893 14.4142 18.4142C14.7893 18.0391 15 17.5304 15 17V3C15 2.60444 15.1173 2.21776 15.3371 1.88886C15.5568 1.55996 15.8692 1.30362 16.2346 1.15224C16.6001 1.00087 17.0022 0.96126 17.3902 1.03843C17.7781 1.1156 18.1345 1.30608 18.4142 1.58579C18.6939 1.86549 18.8844 2.22186 18.9616 2.60982C19.0387 2.99778 18.9991 3.39992 18.8478 3.76537C18.6964 4.13082 18.44 4.44318 18.1111 4.66294C17.7822 4.8827 17.3956 5 17 5H15M17 1H6C5.20435 1 4.44129 1.31607 3.87868 1.87868C3.31607 2.44129 3 3.20435 3 4V15"
		stroke-width="1.5" stroke-linecap="round" stroke-linejoin="round" />
	<path d="M7 5H11" stroke-width="1.5" stroke-linecap="round" stroke-linejoin="round" />
	<path d="M7 9H11" stroke-width="1.5" stroke-linecap="round" stroke-linejoin="round" />
	</g>
</svg>