<svg width="18" height="18" viewBox="0 0 18 18" fill="none" xmlns="http://www.w3.org/2000/svg">
<path d="M15.9628 12.9556C16.1442 12.5236 15.6259 12.1556 15.1913 12.3476C14.3224 12.729 13.3836 12.9251 12.4348 12.9236C8.71475 12.9236 5.69961 9.96891 5.69961 6.32359C5.69825 5.09279 6.04793 3.88713 6.70762 2.84805C6.96007 2.44983 6.65695 1.89872 6.19473 2.01605C2.63114 2.92538 0 6.10048 0 9.87736C0 14.3636 3.71115 18 8.28986 18C11.7566 18 14.7255 15.9156 15.9628 12.9556Z" fill="#FDB434"/>
<path d="M12.611 0.102793C12.081 -0.251207 11.449 0.380794 11.802 0.910794L12.432 1.85579C12.6876 2.23896 12.824 2.68922 12.824 3.14979C12.824 3.61037 12.6876 4.06063 12.432 4.44379L11.802 5.38879C11.449 5.91879 12.082 6.55079 12.612 6.19679L13.556 5.56679C13.9392 5.31123 14.3894 5.17484 14.85 5.17484C15.3106 5.17484 15.7608 5.31123 16.144 5.56679L17.089 6.19679C17.619 6.55079 18.251 5.91879 17.897 5.38879L17.267 4.44379C17.0114 4.06063 16.8751 3.61037 16.8751 3.14979C16.8751 2.68922 17.0114 2.23896 17.267 1.85579L17.897 0.910794C18.251 0.380794 17.619 -0.251207 17.088 0.102793L16.144 0.732794C15.7608 0.988361 15.3106 1.12474 14.85 1.12474C14.3894 1.12474 13.9392 0.988361 13.556 0.732794L12.611 0.102793Z" fill="#E2EBFB"/>
</svg>
