<svg id="nav-icon-app" width="18" stroke="currentColor" fill="none" height="18" viewBox="0 0 18 18">
	<g>
	<path
		d="M2.66667 0.75H5.33333C6.35782 0.75 7.25 1.63291 7.25 2.8V4.2C7.25 5.36709 6.35782 6.25 5.33333 6.25H2.66667C1.64218 6.25 0.75 5.36709 0.75 4.2V2.8C0.75 1.63291 1.64218 0.75 2.66667 0.75Z"
		stroke-width="1.5" stroke-linecap="round" stroke-linejoin="round" />
	<path
		d="M2.66667 9.75H5.33333C6.41782 9.75 7.25 10.591 7.25 11.5714V15.4286C7.25 16.409 6.41782 17.25 5.33333 17.25H2.66667C1.58218 17.25 0.75 16.409 0.75 15.4286V11.5714C0.75 10.591 1.58218 9.75 2.66667 9.75Z"
		stroke-width="1.5" stroke-linecap="round" stroke-linejoin="round" />
	<path
		d="M12.6667 0.75H15.3333C16.4178 0.75 17.25 1.59096 17.25 2.57143V6.42857C17.25 7.40904 16.4178 8.25 15.3333 8.25H12.6667C11.5822 8.25 10.75 7.40904 10.75 6.42857V2.57143C10.75 1.59096 11.5822 0.75 12.6667 0.75Z"
		stroke-width="1.5" stroke-linecap="round" stroke-linejoin="round" />
	<path
		d="M12.6667 11.75H15.3333C16.3578 11.75 17.25 12.6329 17.25 13.8V15.2C17.25 16.3671 16.3578 17.25 15.3333 17.25H12.6667C11.6422 17.25 10.75 16.3671 10.75 15.2V13.8C10.75 12.6329 11.6422 11.75 12.6667 11.75Z"
		stroke-width="1.5" stroke-linecap="round" stroke-linejoin="round" />
	</g>
</svg>