<svg width="100" height="96" fill="none" xmlns="http://www.w3.org/2000/svg"><path d="M32.26 37.393a2 2 0 00.794-.486l20.543-20.52 12.503 21.9a2 2 0 002.353.91l5.506-1.784a2 2 0 00.88-.577l6.032-6.816a2 2 0 00-.081-2.737L53.597 0l-7.194 2.887-20.85 25.155a2 2 0 00-.46 1.293l.075 8.999a1 1 0 001.31.942l5.782-1.883zm-24.953 8.88a1 1 0 00-.049.581l2.57 11.926a1 1 0 001.327.727l6.32-2.353a1 1 0 00.36-.23l9.63-9.662a1 1 0 000-1.412l-9.303-9.333a1 1 0 00-1.106-.21l-6.984 3.031-2.765 6.935zm26.418 10.608a2 2 0 00-2.295-.386l-6.25 3.054-.081 4.326a2 2 0 00.343 1.158L46.402 96l7.195-2.887L80.79 65.83a2 2 0 00.081-2.738l-5.405-6.108a2 2 0 00-2.34-.489l-6.58 3.054-12.954 17.269-19.867-19.937zm45.422-10.617c-.08.19-.097.4-.052.601l2.668 11.92a1 1 0 001.329.718l6.218-2.349a1 1 0 00.355-.229l9.631-9.663a1 1 0 000-1.412l-9.3-9.33a1 1 0 00-1.11-.209l-6.872 3.027-2.867 6.926zm-15.617.989a1 1 0 000-1.411l-9.462-9.493a1 1 0 00-1.088-.22l-6.16 2.53a2 2 0 00-1.093 1.096l-2.642 6.494a1 1 0 00-.048.602l2.754 11.966a1 1 0 001.309.718l6.278-2.223c.14-.05.269-.13.375-.237l9.777-9.822z" fill="#DCAC50"/><path d="M24.114 38.538a2 2 0 002.913.091l19.376-19.354 19.378 19.356a2 2 0 002.911-.09l4.985-5.633a2 2 0 00-.08-2.738L46.402 2.887 19.218 30.163a2 2 0 00-.083 2.735l4.979 5.64zm-23.41 10.2a1 1 0 000 1.412l9.075 9.105a1 1 0 001.416 0l9.075-9.105a1 1 0 000-1.412l-9.075-9.105a1 1 0 00-1.416 0L.704 48.737zm26.323 11.527a2 2 0 00-2.916.088l-4.976 5.636a2 2 0 00.083 2.736L46.403 96l27.193-27.283a2 2 0 00.081-2.737l-4.982-5.63a2 2 0 00-2.914-.087L46.398 79.705l-19.371-19.44zm45.508-11.527a1 1 0 000 1.412l9.076 9.105a1 1 0 001.416 0l9.075-9.105a1 1 0 000-1.412l-9.075-9.105a1 1 0 00-1.416 0l-9.076 9.105zm-16.2 1.402a1 1 0 000-1.411l-9.224-9.255a1 1 0 00-1.416 0l-9.22 9.25a1 1 0 00-.002 1.412l9.217 9.274a1 1 0 001.418.001l9.228-9.27z" fill="#DCAC50"/></svg>
