<svg width="77" height="96" viewBox="0 0 77 96" fill="none" xmlns="http://www.w3.org/2000/svg">
<path opacity="0.4" fill-rule="evenodd" clip-rule="evenodd" d="M63.3031 7.54169C63.5733 6.46394 62.9132 5.37257 61.8333 5.11141L56.5463 3.83293C56.0262 3.70716 55.4774 3.79506 55.0226 4.07697L51.1415 6.48259C50.3861 6.95083 50.0303 7.86141 50.2682 8.71776L51.5093 13.1862C51.9201 14.6654 50.5775 16.047 49.0811 15.7041C48.6916 15.6148 48.3022 15.5265 47.9136 15.4385C46.8197 15.1911 46.1441 14.0929 46.4167 13.0049L48.6855 3.94811C48.9546 2.87407 48.2998 1.78582 47.2249 1.52041L41.8538 0.19431C41.3491 0.0696934 40.8157 0.146509 40.3666 0.408477L36.1908 2.84456C35.3942 3.30929 35.0186 4.25849 35.2816 5.14245L36.7002 9.91017C37.1391 11.3853 35.814 12.7956 34.3139 12.4515C33.6982 12.3103 33.0849 12.1674 32.471 12.018L22.0855 9.30476C21.5622 9.16805 21.0058 9.24909 20.5433 9.52941L16.7666 11.8183C15.6829 12.4751 15.4754 13.9614 16.3378 14.8898L18.6632 17.3934C18.9341 17.685 18.8596 17.7903 19.2474 17.8796C21.0621 18.2979 28.5242 20.9991 28.8073 22.8397C28.8573 23.1644 28.8704 23.4864 28.8578 23.795C28.8531 23.9122 28.8334 24.028 28.8046 24.1417L26.3866 33.6802L24.2384 42.1143L19.6759 60.156C19.6478 60.267 19.6112 60.3754 19.5615 60.4785C19.5131 60.5788 19.459 60.6832 19.3983 60.7891C18.5673 62.2394 13.498 61.6991 11.8838 61.2652C11.4411 61.1462 11.0318 61.0354 10.7014 60.9456C10.1872 60.8059 9.64037 60.8764 9.17827 61.1417L4.64865 63.7424C3.69835 64.2881 3.36406 65.4968 3.89898 66.4532L5.44247 69.2128C5.7132 69.6968 6.17276 70.0467 6.71138 70.1789L16.4896 72.5782C17.799 72.9034 19.1084 73.2533 20.3997 73.5936C21.4665 73.8748 22.1137 74.9618 21.844 76.0315L19.017 87.2474C18.9731 87.4216 18.9528 87.601 18.9568 87.7807L19.0028 89.8455C19.0338 91.2405 20.4479 92.1758 21.7438 91.6584L26.1709 89.891C26.7679 89.6527 27.214 89.1418 27.3697 88.5181L30.4413 76.2181L33.078 66.5087L37.0675 50.6965C37.3406 49.6143 38.4509 48.9487 39.5421 49.1833C39.8601 49.2517 40.1841 49.3221 40.5138 49.3986C43.8334 50.1247 47.2715 50.4273 50.648 50.6739C52.7346 50.8555 54.7643 50.916 56.8509 50.916C59.966 50.8485 63.0523 50.3148 66.0034 49.3335C68.4647 48.5468 71.3479 47.5182 73.1927 45.5726C75.3409 43.3291 76.389 40.3595 76.8158 37.3806C78.2064 28.1684 71.5693 22.9497 62.2078 19.4301C61.2356 19.0646 60.6727 18.0351 60.9252 17.0277L63.3031 7.54169ZM63.1201 53.5272C61.1442 53.8423 60.0045 54.0207 58.2523 54.1414C57.7118 54.1787 57.2108 54.4382 56.7489 54.7215C54.6569 56.0044 49.9498 56.6106 50.6001 58.5454C51.1302 59.9281 58.6376 61.4927 58.2024 63.2319C56.4277 70.3746 47.1706 69.6466 40.014 68.1659C39.5119 68.062 38.989 68.1481 38.5504 68.4138L34.4089 70.9239C33.4393 71.5115 33.1516 72.7869 33.7749 73.7339L36.2881 77.5518C36.5938 78.0162 36.6924 78.5868 36.5602 79.1269L33.7312 90.6872C33.6663 90.9524 33.6564 91.2282 33.7021 91.4975L34.0533 93.565C34.2663 94.8189 35.5802 95.5582 36.7625 95.0891L40.8434 93.4703C41.4438 93.2321 41.8922 92.7186 42.0474 92.0916L44.6648 81.5148C44.9195 80.4855 45.9356 79.8374 46.9815 80.0117C59.9414 82.1711 69.7051 80.6935 73.8661 68.7568C76.5934 61.1531 74.6598 55.2027 70.5371 51.4909C70.4414 51.4048 70.2709 51.3724 70.1575 51.4335C70.129 51.4488 70.1046 51.4667 70.0746 51.4787C68.1142 52.2657 65.3743 53.1669 63.1201 53.5272ZM60.7206 37.2596C58.7092 45.3209 47.3063 42.628 41.5202 41.1039C40.4515 40.8224 39.8074 39.7276 40.0767 38.6557L43.1508 26.4173C43.4221 25.3372 44.522 24.6736 45.6081 24.9198C51.456 26.2454 62.8431 28.8318 60.7206 37.2596Z" fill="#E98566"/>
<path fill-rule="evenodd" clip-rule="evenodd" d="M57.4362 10.4509C57.7064 9.37312 57.0463 8.28175 55.9664 8.02059L51.7836 7.00912C50.7205 6.75205 49.6481 7.39658 49.3763 8.45596L47.0596 17.4836C46.7857 18.5509 45.7002 19.1952 44.6279 18.9418C43.7684 18.7387 42.9056 18.542 42.0467 18.3477C40.9527 18.1003 40.2772 17.002 40.5498 15.914L42.8186 6.85729C43.0877 5.78325 42.4329 4.695 41.3579 4.42959L37.126 3.38473C36.0597 3.12147 34.9807 3.76729 34.7088 4.83139L32.3076 14.2309C32.0373 15.2888 30.9683 15.9354 29.9037 15.6928C28.7943 15.4399 27.7001 15.1939 26.604 14.9272L17.3554 12.511C16.2788 12.2297 15.1796 12.8813 14.9096 13.9608L13.6112 19.1535C13.3919 20.0302 13.4066 20.7941 14.2869 20.9986C15.7611 21.3412 22.0628 23.3648 22.6597 24.7556C22.9367 25.401 23.0163 26.0799 22.9909 26.7042C22.9862 26.8213 22.9665 26.9372 22.9376 27.0509L20.5197 36.5894L18.3715 45.0234L13.8089 63.0652C13.7809 63.1762 13.7443 63.2846 13.6946 63.3877C13.6462 63.488 13.592 63.5924 13.5314 63.6983C12.7004 65.1486 7.63112 64.6083 6.01688 64.1744C5.91037 64.1458 5.80579 64.1176 5.70378 64.0901C4.74414 63.8314 3.73841 64.3123 3.34095 65.2233L0.949515 70.7045C0.453474 71.8415 1.10133 73.1511 2.30603 73.4467L10.6226 75.4874C11.9321 75.8126 13.2415 76.1625 14.5328 76.5028C15.5995 76.784 16.2468 77.871 15.9771 78.9407L13.576 88.4668C13.3047 89.5429 13.9616 90.6341 15.0395 90.8982L19.3209 91.9469C20.3904 92.2089 21.4704 91.5571 21.7372 90.4889L24.5744 79.1272L27.211 69.4179L31.2006 53.6057C31.4737 52.5235 32.584 51.8579 33.6752 52.0925C33.9932 52.1609 34.3172 52.2313 34.6469 52.3078C37.9665 53.0339 41.4046 53.3364 44.7811 53.5831C46.8677 53.7647 48.8974 53.8252 50.984 53.8252C54.0991 53.7576 57.1854 53.224 60.1365 52.2426C62.5977 51.456 65.481 50.4274 67.3258 48.4818C69.474 46.2383 70.522 43.2687 70.9489 40.2898C72.3395 31.0776 65.7024 25.8589 56.3408 22.3393C55.3687 21.9738 54.8058 20.9443 55.0583 19.9369L57.4362 10.4509ZM57.2532 56.4364C54.9769 56.7994 53.8104 56.9809 51.5388 57.102C50.5991 57.0987 50.1434 58.4396 50.7486 59.1585C52.314 61.018 53.0324 63.3558 52.3355 66.1411C50.6539 72.9091 42.2542 72.6105 35.2892 71.3009C34.2179 71.0994 33.1644 71.7583 32.912 72.8187L31.0191 80.7703L30.9005 81.1892L28.2411 92.0564C27.9786 93.1291 28.6352 94.2115 29.7078 94.4744L33.9951 95.525C35.0662 95.7875 36.1477 95.1334 36.4126 94.0629L38.7978 84.424C39.0525 83.3947 40.0687 82.7466 41.1146 82.9208C54.0745 85.0802 63.8381 83.6027 67.9992 71.666C70.7265 64.0623 68.7929 58.1119 64.6702 54.4001C64.5745 54.314 64.404 54.2816 64.2906 54.3426C64.2621 54.358 64.2377 54.3758 64.2077 54.3879C62.2473 55.1749 59.5074 56.0761 57.2532 56.4364ZM54.8536 40.1688C52.8423 48.2301 41.4393 45.5372 35.6533 44.0131C34.5846 43.7316 33.9405 42.6368 34.2097 41.5649L37.2839 29.3265C37.5552 28.2464 38.6551 27.5828 39.7412 27.829C45.5891 29.1546 56.9762 31.741 54.8536 40.1688Z" fill="#E98566"/>
</svg>
