<svg width="16" height="24" viewBox="0 0 16 24" fill="none" xmlns="http://www.w3.org/2000/svg">
<path d="M16 7.51807C16 11.9511 12.3636 12.6396 12.3636 16.7711C12.3636 18.904 10.0924 19.0836 8.36364 19.0836C6.87055 19.0836 3.57382 18.5473 3.57382 16.7697C3.57382 12.6403 0 11.9518 0 7.51807C0 3.36592 3.84364 0 8.06036 0C12.2785 0 16 3.36592 16 7.51807Z" fill="#FDB434"/>
<path d="M11 22.3682C11 22.9086 9.39165 24 8 24C6.60835 24 5 22.9086 5 22.3682C5 21.8277 6.60763 22.0418 8 22.0418C9.39165 22.0418 11 21.8277 11 22.3682Z" fill="#ADBBD2"/>
<path d="M11.4228 6.98995C11.3553 6.92596 11.2752 6.87519 11.1869 6.84055C11.0987 6.80591 11.0041 6.78809 10.9086 6.78809C10.8131 6.78809 10.7185 6.80591 10.6303 6.84055C10.5421 6.87519 10.4619 6.92596 10.3944 6.98995L7.99954 9.25707L5.60463 6.98995C5.5371 6.92603 5.45694 6.87532 5.36872 6.84073C5.28049 6.80613 5.18594 6.78833 5.09044 6.78833C4.99495 6.78833 4.90039 6.80613 4.81217 6.84073C4.72395 6.87532 4.64379 6.92603 4.57626 6.98995C4.50874 7.05387 4.45518 7.12975 4.41863 7.21327C4.38209 7.29678 4.36328 7.3863 4.36328 7.47669C4.36328 7.56709 4.38209 7.6566 4.41863 7.74012C4.45518 7.82363 4.50874 7.89952 4.57626 7.96344L7.27226 10.5156V17.8037C7.27226 17.9863 7.34889 18.1614 7.48528 18.2905C7.62167 18.4196 7.80665 18.4922 7.99954 18.4922C8.19242 18.4922 8.37741 18.4196 8.5138 18.2905C8.65019 18.1614 8.72681 17.9863 8.72681 17.8037V10.5156L11.4228 7.96344C11.4904 7.89956 11.544 7.82369 11.5806 7.74016C11.6172 7.65664 11.636 7.56711 11.636 7.47669C11.636 7.38627 11.6172 7.29674 11.5806 7.21322C11.544 7.1297 11.4904 7.05383 11.4228 6.98995Z" fill="#FFDFA6"/>
<path d="M12.363 21.246C12.363 21.6112 12.2098 21.9615 11.937 22.2197C11.6642 22.4779 11.2942 22.623 10.9085 22.623H5.09029C4.70452 22.623 4.33455 22.4779 4.06177 22.2197C3.78899 21.9615 3.63574 21.6112 3.63574 21.246V17.1152H12.363V21.246Z" fill="#75849D"/>
<path d="M3.7118 22C3.53289 21.9993 3.36074 21.9282 3.22939 21.8007C3.09803 21.6731 3.01703 21.4985 3.0024 21.3114C2.98776 21.1242 3.04056 20.9381 3.15035 20.7898C3.26014 20.6415 3.41894 20.5418 3.59534 20.5105L12.1687 19.0106C12.2612 18.9939 12.356 18.9966 12.4476 19.0186C12.5391 19.0406 12.6256 19.0815 12.7021 19.1388C12.7785 19.1961 12.8433 19.2688 12.8928 19.3526C12.9422 19.4364 12.9754 19.5297 12.9903 19.6271C13.0057 19.7242 13.0028 19.8235 12.9816 19.9195C12.9604 20.0154 12.9215 20.106 12.8669 20.1861C12.8124 20.2662 12.7433 20.3342 12.6637 20.3863C12.5841 20.4384 12.4955 20.4734 12.403 20.4895L3.82968 21.9895C3.79076 21.9967 3.75131 22.0002 3.7118 22ZM3.7118 19.0001C3.53289 18.9994 3.36074 18.9283 3.22939 18.8008C3.09803 18.6732 3.01703 18.4986 3.0024 18.3115C2.98776 18.1243 3.04056 17.9382 3.15035 17.7899C3.26014 17.6416 3.41894 17.5419 3.59534 17.5106L12.1687 16.0107C12.2612 15.9941 12.356 15.9969 12.4475 16.0189C12.539 16.041 12.6255 16.0818 12.7019 16.1391C12.7783 16.1965 12.8431 16.2691 12.8926 16.3529C12.9421 16.4366 12.9753 16.5299 12.9903 16.6272C13.0057 16.7243 13.0028 16.8236 12.9816 16.9196C12.9604 17.0155 12.9215 17.1061 12.8669 17.1862C12.8124 17.2663 12.7433 17.3343 12.6637 17.3864C12.5841 17.4384 12.4955 17.4735 12.403 17.4896L3.82968 18.9896C3.79076 18.9968 3.75131 19.0003 3.7118 19.0001Z" fill="#ADBBD2"/>
</svg>
