<svg id="nav-icon-cloud" width="22" height="20" stroke="currentColor" fill="none" viewBox="0 0 22 20">
	<g>
	<path
		d="M5.65692 14.7771C4.42183 14.7771 3.23732 14.2766 2.36398 13.3857C1.49064 12.4947 1 11.2864 1 10.0264C1 8.76642 1.49064 7.55805 2.36398 6.66712C3.23732 5.77618 4.42183 5.27566 5.65692 5.27566C5.94862 3.88969 6.80197 2.67171 8.02924 1.88967C8.63693 1.50244 9.31812 1.23389 10.0339 1.09936C10.7497 0.964821 11.4861 0.966933 12.2011 1.10557C12.9161 1.24421 13.5956 1.51666 14.2008 1.90737C14.8061 2.29808 15.3253 2.79939 15.7287 3.38268C16.1321 3.96597 16.4119 4.61983 16.552 5.30691C16.6922 5.99398 16.69 6.70083 16.5456 7.3871H17.5354C18.4543 7.3871 19.3355 7.77639 19.9853 8.46934C20.635 9.16229 21 10.1021 21 11.0821C21 12.0621 20.635 13.0019 19.9853 13.6949C19.3355 14.3878 18.4543 14.7771 17.5354 14.7771H16.5456"
		stroke-width="1.5" stroke-linecap="round" stroke-linejoin="round" />
	<path d="M11.5962 10.5542L9.61646 14.7771H12.5861L10.6063 18.9999" stroke-width="1.5" stroke-linecap="round"
		stroke-linejoin="round" />
	</g>
</svg>