<svg width="24" height="24" viewBox="0 0 24 24" fill="currentColor" stroke="currentColor" xmlns="http://www.w3.org/2000/svg">
<path d="M17 9.00093H16.1C16.1 9.01843 16.1005 9.03593 16.1015 9.0534L17 9.00093ZM11.9229 13.9994L12.8131 14.132C12.8513 13.8754 12.7769 13.6147 12.609 13.4169C12.4411 13.2191 12.196 13.1034 11.9365 13.0995L11.9229 13.9994ZM9.22217 19.6667L8.64401 18.9769C8.34755 19.2254 8.24305 19.6356 8.38445 19.9957C8.52586 20.3557 8.88154 20.5852 9.26787 20.5655L9.22217 19.6667ZM16.1 9C16.1 9 16.1 9 16.1 9C16.1 9 16.1 9 16.1 9C16.1 9 16.1 9 16.1 9.00001C16.1 9.00001 16.1 9.00001 16.1 9.00001C16.1 9.00001 16.1 9.00001 16.1 9.00001C16.1 9.00001 16.1 9.00001 16.1 9.00001C16.1 9.00001 16.1 9.00001 16.1 9.00001C16.1 9.00001 16.1 9.00001 16.1 9.00001C16.1 9.00002 16.1 9.00002 16.1 9.00002C16.1 9.00002 16.1 9.00002 16.1 9.00002C16.1 9.00002 16.1 9.00002 16.1 9.00002C16.1 9.00002 16.1 9.00002 16.1 9.00002C16.1 9.00002 16.1 9.00002 16.1 9.00002C16.1 9.00002 16.1 9.00002 16.1 9.00003C16.1 9.00003 16.1 9.00003 16.1 9.00003C16.1 9.00003 16.1 9.00003 16.1 9.00003C16.1 9.00003 16.1 9.00003 16.1 9.00003C16.1 9.00003 16.1 9.00003 16.1 9.00003C16.1 9.00003 16.1 9.00003 16.1 9.00003C16.1 9.00004 16.1 9.00004 16.1 9.00004C16.1 9.00004 16.1 9.00004 16.1 9.00004C16.1 9.00004 16.1 9.00004 16.1 9.00004C16.1 9.00004 16.1 9.00004 16.1 9.00004C16.1 9.00004 16.1 9.00004 16.1 9.00004C16.1 9.00004 16.1 9.00004 16.1 9.00005C16.1 9.00005 16.1 9.00005 16.1 9.00005C16.1 9.00005 16.1 9.00005 16.1 9.00005C16.1 9.00005 16.1 9.00005 16.1 9.00005C16.1 9.00005 16.1 9.00005 16.1 9.00005C16.1 9.00005 16.1 9.00005 16.1 9.00005C16.1 9.00005 16.1 9.00006 16.1 9.00006C16.1 9.00006 16.1 9.00006 16.1 9.00006C16.1 9.00006 16.1 9.00006 16.1 9.00006C16.1 9.00006 16.1 9.00006 16.1 9.00006C16.1 9.00006 16.1 9.00006 16.1 9.00006C16.1 9.00006 16.1 9.00006 16.1 9.00007C16.1 9.00007 16.1 9.00007 16.1 9.00007C16.1 9.00007 16.1 9.00007 16.1 9.00007C16.1 9.00007 16.1 9.00007 16.1 9.00007C16.1 9.00007 16.1 9.00007 16.1 9.00007C16.1 9.00007 16.1 9.00007 16.1 9.00007C16.1 9.00007 16.1 9.00008 16.1 9.00008C16.1 9.00008 16.1 9.00008 16.1 9.00008C16.1 9.00008 16.1 9.00008 16.1 9.00008C16.1 9.00008 16.1 9.00008 16.1 9.00008C16.1 9.00008 16.1 9.00008 16.1 9.00008C16.1 9.00008 16.1 9.00008 16.1 9.00009C16.1 9.00009 16.1 9.00009 16.1 9.00009C16.1 9.00009 16.1 9.00009 16.1 9.00009C16.1 9.00009 16.1 9.00009 16.1 9.00009C16.1 9.00009 16.1 9.00009 16.1 9.00009C16.1 9.00009 16.1 9.00009 16.1 9.00009C16.1 9.00009 16.1 9.0001 16.1 9.0001C16.1 9.0001 16.1 9.0001 16.1 9.0001C16.1 9.0001 16.1 9.0001 16.1 9.0001C16.1 9.0001 16.1 9.0001 16.1 9.0001C16.1 9.0001 16.1 9.0001 16.1 9.0001C16.1 9.0001 16.1 9.0001 16.1 9.00011C16.1 9.00011 16.1 9.00011 16.1 9.00011C16.1 9.00011 16.1 9.00011 16.1 9.00011C16.1 9.00011 16.1 9.00011 16.1 9.00011C16.1 9.00011 16.1 9.00011 16.1 9.00011C16.1 9.00011 16.1 9.00011 16.1 9.00011C16.1 9.00011 16.1 9.00012 16.1 9.00012C16.1 9.00012 16.1 9.00012 16.1 9.00012C16.1 9.00012 16.1 9.00012 16.1 9.00012C16.1 9.00012 16.1 9.00012 16.1 9.00012C16.1 9.00012 16.1 9.00012 16.1 9.00012C16.1 9.00012 16.1 9.00012 16.1 9.00012C16.1 9.00013 16.1 9.00013 16.1 9.00013C16.1 9.00013 16.1 9.00013 16.1 9.00013C16.1 9.00013 16.1 9.00013 16.1 9.00013C16.1 9.00013 16.1 9.00013 16.1 9.00013C16.1 9.00013 16.1 9.00013 16.1 9.00013C16.1 9.00013 16.1 9.00014 16.1 9.00014C16.1 9.00014 16.1 9.00014 16.1 9.00014C16.1 9.00014 16.1 9.00014 16.1 9.00014C16.1 9.00014 16.1 9.00014 16.1 9.00014C16.1 9.00014 16.1 9.00014 16.1 9.00014C16.1 9.00014 16.1 9.00014 16.1 9.00014C16.1 9.00015 16.1 9.00015 16.1 9.00015C16.1 9.00015 16.1 9.00015 16.1 9.00015C16.1 9.00015 16.1 9.00015 16.1 9.00015C16.1 9.00015 16.1 9.00015 16.1 9.00015C16.1 9.00015 16.1 9.00015 16.1 9.00015C16.1 9.00015 16.1 9.00016 16.1 9.00016C16.1 9.00016 16.1 9.00016 16.1 9.00016C16.1 9.00016 16.1 9.00016 16.1 9.00016C16.1 9.00016 16.1 9.00016 16.1 9.00016C16.1 9.00016 16.1 9.00016 16.1 9.00016C16.1 9.00016 16.1 9.00016 16.1 9.00016C16.1 9.00017 16.1 9.00017 16.1 9.00017C16.1 9.00017 16.1 9.00017 16.1 9.00017C16.1 9.00017 16.1 9.00017 16.1 9.00017C16.1 9.00017 16.1 9.00017 16.1 9.00017C16.1 9.00017 16.1 9.00017 16.1 9.00017C16.1 9.00017 16.1 9.00018 16.1 9.00018C16.1 9.00018 16.1 9.00018 16.1 9.00018C16.1 9.00018 16.1 9.00018 16.1 9.00018C16.1 9.00018 16.1 9.00018 16.1 9.00018C16.1 9.00018 16.1 9.00018 16.1 9.00018C16.1 9.00018 16.1 9.00018 16.1 9.00019C16.1 9.00019 16.1 9.00019 16.1 9.00019C16.1 9.00019 16.1 9.00019 16.1 9.00019C16.1 9.00019 16.1 9.00019 16.1 9.00019C16.1 9.00019 16.1 9.00019 16.1 9.00019C16.1 9.00019 16.1 9.00019 16.1 9.00019C16.1 9.00019 16.1 9.0002 16.1 9.0002C16.1 9.0002 16.1 9.0002 16.1 9.0002C16.1 9.0002 16.1 9.0002 16.1 9.0002C16.1 9.0002 16.1 9.0002 16.1 9.0002C16.1 9.0002 16.1 9.0002 16.1 9.0002C16.1 9.0002 16.1 9.0002 16.1 9.00021C16.1 9.00021 16.1 9.00021 16.1 9.00021C16.1 9.00021 16.1 9.00021 16.1 9.00021C16.1 9.00021 16.1 9.00021 16.1 9.00021C16.1 9.00021 16.1 9.00021 16.1 9.00021C16.1 9.00021 16.1 9.00021 16.1 9.00021C16.1 9.00021 16.1 9.00022 16.1 9.00022C16.1 9.00022 16.1 9.00022 16.1 9.00022C16.1 9.00022 16.1 9.00022 16.1 9.00022C16.1 9.00022 16.1 9.00022 16.1 9.00022C16.1 9.00022 16.1 9.00022 16.1 9.00022C16.1 9.00022 16.1 9.00022 16.1 9.00023C16.1 9.00023 16.1 9.00023 16.1 9.00023C16.1 9.00023 16.1 9.00023 16.1 9.00023C16.1 9.00023 16.1 9.00023 16.1 9.00023C16.1 9.00023 16.1 9.00023 16.1 9.00023C16.1 9.00023 16.1 9.00023 16.1 9.00023C16.1 9.00023 16.1 9.00024 16.1 9.00024C16.1 9.00024 16.1 9.00024 16.1 9.00024C16.1 9.00024 16.1 9.00024 16.1 9.00024C16.1 9.00024 16.1 9.00024 16.1 9.00024C16.1 9.00024 16.1 9.00024 16.1 9.00024C16.1 9.00024 16.1 9.00024 16.1 9.00025C16.1 9.00025 16.1 9.00025 16.1 9.00025C16.1 9.00025 16.1 9.00025 16.1 9.00025C16.1 9.00025 16.1 9.00025 16.1 9.00025C16.1 9.00025 16.1 9.00025 16.1 9.00025C16.1 9.00025 16.1 9.00025 16.1 9.00025C16.1 9.00025 16.1 9.00026 16.1 9.00026C16.1 9.00026 16.1 9.00026 16.1 9.00026C16.1 9.00026 16.1 9.00026 16.1 9.00026C16.1 9.00026 16.1 9.00026 16.1 9.00026C16.1 9.00026 16.1 9.00026 16.1 9.00026C16.1 9.00026 16.1 9.00026 16.1 9.00026C16.1 9.00027 16.1 9.00027 16.1 9.00027C16.1 9.00027 16.1 9.00027 16.1 9.00027C16.1 9.00027 16.1 9.00027 16.1 9.00027C16.1 9.00027 16.1 9.00027 16.1 9.00027C16.1 9.00027 16.1 9.00027 16.1 9.00027C16.1 9.00027 16.1 9.00028 16.1 9.00028C16.1 9.00028 16.1 9.00028 16.1 9.00028C16.1 9.00028 16.1 9.00028 16.1 9.00028C16.1 9.00028 16.1 9.00028 16.1 9.00028C16.1 9.00028 16.1 9.00028 16.1 9.00028C16.1 9.00028 16.1 9.00028 16.1 9.00028C16.1 9.00029 16.1 9.00029 16.1 9.00029C16.1 9.00029 16.1 9.00029 16.1 9.00029C16.1 9.00029 16.1 9.00029 16.1 9.00029C16.1 9.00029 16.1 9.00029 16.1 9.00029C16.1 9.00029 16.1 9.00029 16.1 9.00029C16.1 9.00029 16.1 9.0003 16.1 9.0003C16.1 9.0003 16.1 9.0003 16.1 9.0003C16.1 9.0003 16.1 9.0003 16.1 9.0003C16.1 9.0003 16.1 9.0003 16.1 9.0003C16.1 9.0003 16.1 9.0003 16.1 9.0003C16.1 9.0003 16.1 9.0003 16.1 9.0003C16.1 9.00031 16.1 9.00031 16.1 9.00031C16.1 9.00031 16.1 9.00031 16.1 9.00031C16.1 9.00031 16.1 9.00031 16.1 9.00031C16.1 9.00031 16.1 9.00031 16.1 9.00031C16.1 9.00031 16.1 9.00031 16.1 9.00031C16.1 9.00031 16.1 9.00032 16.1 9.00032C16.1 9.00032 16.1 9.00032 16.1 9.00032C16.1 9.00032 16.1 9.00032 16.1 9.00032C16.1 9.00032 16.1 9.00032 16.1 9.00032C16.1 9.00032 16.1 9.00032 16.1 9.00032C16.1 9.00032 16.1 9.00032 16.1 9.00032C16.1 9.00033 16.1 9.00033 16.1 9.00033C16.1 9.00033 16.1 9.00033 16.1 9.00033C16.1 9.00033 16.1 9.00033 16.1 9.00033C16.1 9.00033 16.1 9.00033 16.1 9.00033C16.1 9.00033 16.1 9.00033 16.1 9.00033C16.1 9.00033 16.1 9.00034 16.1 9.00034C16.1 9.00034 16.1 9.00034 16.1 9.00034C16.1 9.00034 16.1 9.00034 16.1 9.00034C16.1 9.00034 16.1 9.00034 16.1 9.00034C16.1 9.00034 16.1 9.00034 16.1 9.00034C16.1 9.00034 16.1 9.00034 16.1 9.00034C16.1 9.00035 16.1 9.00035 16.1 9.00035C16.1 9.00035 16.1 9.00035 16.1 9.00035C16.1 9.00035 16.1 9.00035 16.1 9.00035C16.1 9.00035 16.1 9.00035 16.1 9.00035C16.1 9.00035 16.1 9.00035 16.1 9.00035C16.1 9.00035 16.1 9.00035 16.1 9.00036C16.1 9.00036 16.1 9.00036 16.1 9.00036C16.1 9.00036 16.1 9.00036 16.1 9.00036C16.1 9.00036 16.1 9.00036 16.1 9.00036C16.1 9.00036 16.1 9.00036 16.1 9.00036C16.1 9.00036 16.1 9.00036 16.1 9.00036C16.1 9.00037 16.1 9.00037 16.1 9.00037C16.1 9.00037 16.1 9.00037 16.1 9.00037C16.1 9.00037 16.1 9.00037 16.1 9.00037C16.1 9.00037 16.1 9.00037 16.1 9.00037C16.1 9.00037 16.1 9.00037 16.1 9.00037C16.1 9.00037 16.1 9.00037 16.1 9.00038C16.1 9.00038 16.1 9.00038 16.1 9.00038C16.1 9.00038 16.1 9.00038 16.1 9.00038C16.1 9.00038 16.1 9.00038 16.1 9.00038C16.1 9.00038 16.1 9.00038 16.1 9.00038C16.1 9.00038 16.1 9.00038 16.1 9.00038C16.1 9.00039 16.1 9.00039 16.1 9.00039C16.1 9.00039 16.1 9.00039 16.1 9.00039C16.1 9.00039 16.1 9.00039 16.1 9.00039C16.1 9.00039 16.1 9.00039 16.1 9.00039C16.1 9.00039 16.1 9.00039 16.1 9.00039C16.1 9.00039 16.1 9.00039 16.1 9.0004C16.1 9.0004 16.1 9.0004 16.1 9.0004C16.1 9.0004 16.1 9.0004 16.1 9.0004C16.1 9.0004 16.1 9.0004 16.1 9.0004C16.1 9.0004 16.1 9.0004 16.1 9.0004C16.1 9.0004 16.1 9.0004 16.1 9.0004C16.1 9.00041 16.1 9.00041 16.1 9.00041C16.1 9.00041 16.1 9.00041 16.1 9.00041C16.1 9.00041 16.1 9.00041 16.1 9.00041C16.1 9.00041 16.1 9.00041 16.1 9.00041C16.1 9.00041 16.1 9.00041 16.1 9.00041C16.1 9.00041 16.1 9.00041 16.1 9.00042C16.1 9.00042 16.1 9.00042 16.1 9.00042C16.1 9.00042 16.1 9.00042 16.1 9.00042C16.1 9.00042 16.1 9.00042 16.1 9.00042C16.1 9.00042 16.1 9.00042 16.1 9.00042C16.1 9.00042 16.1 9.00042 16.1 9.00042C16.1 9.00043 16.1 9.00043 16.1 9.00043C16.1 9.00043 16.1 9.00043 16.1 9.00043C16.1 9.00043 16.1 9.00043 16.1 9.00043C16.1 9.00043 16.1 9.00043 16.1 9.00043C16.1 9.00043 16.1 9.00043 16.1 9.00043C16.1 9.00043 16.1 9.00043 16.1 9.00044C16.1 9.00044 16.1 9.00044 16.1 9.00044C16.1 9.00044 16.1 9.00044 16.1 9.00044C16.1 9.00044 16.1 9.00044 16.1 9.00044C16.1 9.00044 16.1 9.00044 16.1 9.00044C16.1 9.00044 16.1 9.00044 16.1 9.00044C16.1 9.00044 16.1 9.00045 16.1 9.00045C16.1 9.00045 16.1 9.00045 16.1 9.00045C16.1 9.00045 16.1 9.00045 16.1 9.00045C16.1 9.00045 16.1 9.00045 16.1 9.00045C16.1 9.00045 16.1 9.00045 16.1 9.00045C16.1 9.00045 16.1 9.00045 16.1 9.00046C16.1 9.00046 16.1 9.00046 16.1 9.00046C16.1 9.00046 16.1 9.00046 16.1 9.00046C16.1 9.00046 16.1 9.00046 16.1 9.00046C16.1 9.00046 16.1 9.00046 16.1 9.00046C16.1 9.00046 16.1 9.00046 16.1 9.00046C16.1 9.00046 16.1 9.00047 16.1 9.00047C16.1 9.00047 16.1 9.00047 16.1 9.00047C16.1 9.00047 16.1 9.00047 16.1 9.00047C16.1 9.00047 16.1 9.00047 16.1 9.00047C16.1 9.00047 16.1 9.00047 16.1 9.00047C16.1 9.00047 16.1 9.00047 16.1 9.00048C16.1 9.00048 16.1 9.00048 16.1 9.00048C16.1 9.00048 16.1 9.00048 16.1 9.00048C16.1 9.00048 16.1 9.00048 16.1 9.00048C16.1 9.00048 16.1 9.00048 16.1 9.00048C16.1 9.00048 16.1 9.00048 16.1 9.00048C16.1 9.00048 16.1 9.00049 16.1 9.00049C16.1 9.00049 16.1 9.00049 16.1 9.00049C16.1 9.00049 16.1 9.00049 16.1 9.00049C16.1 9.00049 16.1 9.00049 16.1 9.00049C16.1 9.00049 16.1 9.00049 16.1 9.00049C16.1 9.00049 16.1 9.00049 16.1 9.0005C16.1 9.0005 16.1 9.0005 16.1 9.0005C16.1 9.0005 16.1 9.0005 16.1 9.0005C16.1 9.0005 16.1 9.0005 16.1 9.0005C16.1 9.0005 16.1 9.0005 16.1 9.0005C16.1 9.0005 16.1 9.0005 16.1 9.0005C16.1 9.0005 16.1 9.00051 16.1 9.00051C16.1 9.00051 16.1 9.00051 16.1 9.00051C16.1 9.00051 16.1 9.00051 16.1 9.00051C16.1 9.00051 16.1 9.00051 16.1 9.00051C16.1 9.00051 16.1 9.00051 16.1 9.00051C16.1 9.00051 16.1 9.00051 16.1 9.00052C16.1 9.00052 16.1 9.00052 16.1 9.00052C16.1 9.00052 16.1 9.00052 16.1 9.00052C16.1 9.00052 16.1 9.00052 16.1 9.00052C16.1 9.00052 16.1 9.00052 16.1 9.00052C16.1 9.00052 16.1 9.00052 16.1 9.00052C16.1 9.00052 16.1 9.00053 16.1 9.00053C16.1 9.00053 16.1 9.00053 16.1 9.00053C16.1 9.00053 16.1 9.00053 16.1 9.00053C16.1 9.00053 16.1 9.00053 16.1 9.00053C16.1 9.00053 16.1 9.00053 16.1 9.00053C16.1 9.00053 16.1 9.00053 16.1 9.00054C16.1 9.00054 16.1 9.00054 16.1 9.00054C16.1 9.00054 16.1 9.00054 16.1 9.00054C16.1 9.00054 16.1 9.00054 16.1 9.00054C16.1 9.00054 16.1 9.00054 16.1 9.00054C16.1 9.00054 16.1 9.00054 16.1 9.00054C16.1 9.00055 16.1 9.00055 16.1 9.00055C16.1 9.00055 16.1 9.00055 16.1 9.00055C16.1 9.00055 16.1 9.00055 16.1 9.00055C16.1 9.00055 16.1 9.00055 16.1 9.00055C16.1 9.00055 16.1 9.00055 16.1 9.00055C16.1 9.00055 16.1 9.00055 16.1 9.00056C16.1 9.00056 16.1 9.00056 16.1 9.00056C16.1 9.00056 16.1 9.00056 16.1 9.00056C16.1 9.00056 16.1 9.00056 16.1 9.00056C16.1 9.00056 16.1 9.00056 16.1 9.00056C16.1 9.00056 16.1 9.00056 16.1 9.00056C16.1 9.00057 16.1 9.00057 16.1 9.00057C16.1 9.00057 16.1 9.00057 16.1 9.00057C16.1 9.00057 16.1 9.00057 16.1 9.00057C16.1 9.00057 16.1 9.00057 16.1 9.00057C16.1 9.00057 16.1 9.00057 16.1 9.00057C16.1 9.00057 16.1 9.00057 16.1 9.00058C16.1 9.00058 16.1 9.00058 16.1 9.00058C16.1 9.00058 16.1 9.00058 16.1 9.00058C16.1 9.00058 16.1 9.00058 16.1 9.00058C16.1 9.00058 16.1 9.00058 16.1 9.00058C16.1 9.00058 16.1 9.00058 16.1 9.00058C16.1 9.00058 16.1 9.00059 16.1 9.00059C16.1 9.00059 16.1 9.00059 16.1 9.00059C16.1 9.00059 16.1 9.00059 16.1 9.00059C16.1 9.00059 16.1 9.00059 16.1 9.00059C16.1 9.00059 16.1 9.00059 16.1 9.00059C16.1 9.00059 16.1 9.00059 16.1 9.0006C16.1 9.0006 16.1 9.0006 16.1 9.0006C16.1 9.0006 16.1 9.0006 16.1 9.0006C16.1 9.0006 16.1 9.0006 16.1 9.0006C16.1 9.0006 16.1 9.0006 16.1 9.0006C16.1 9.0006 16.1 9.0006 16.1 9.0006C16.1 9.0006 16.1 9.00061 16.1 9.00061C16.1 9.00061 16.1 9.00061 16.1 9.00061C16.1 9.00061 16.1 9.00061 16.1 9.00061C16.1 9.00061 16.1 9.00061 16.1 9.00061C16.1 9.00061 16.1 9.00061 16.1 9.00061C16.1 9.00061 16.1 9.00061 16.1 9.00062C16.1 9.00062 16.1 9.00062 16.1 9.00062C16.1 9.00062 16.1 9.00062 16.1 9.00062C16.1 9.00062 16.1 9.00062 16.1 9.00062C16.1 9.00062 16.1 9.00062 16.1 9.00062C16.1 9.00062 16.1 9.00062 16.1 9.00062C16.1 9.00062 16.1 9.00063 16.1 9.00063C16.1 9.00063 16.1 9.00063 16.1 9.00063C16.1 9.00063 16.1 9.00063 16.1 9.00063C16.1 9.00063 16.1 9.00063 16.1 9.00063C16.1 9.00063 16.1 9.00063 16.1 9.00063C16.1 9.00063 16.1 9.00063 16.1 9.00064C16.1 9.00064 16.1 9.00064 16.1 9.00064C16.1 9.00064 16.1 9.00064 16.1 9.00064C16.1 9.00064 16.1 9.00064 16.1 9.00064C16.1 9.00064 16.1 9.00064 16.1 9.00064C16.1 9.00064 16.1 9.00064 16.1 9.00064C16.1 9.00064 16.1 9.00065 16.1 9.00065C16.1 9.00065 16.1 9.00065 16.1 9.00065C16.1 9.00065 16.1 9.00065 16.1 9.00065C16.1 9.00065 16.1 9.00065 16.1 9.00065C16.1 9.00065 16.1 9.00065 16.1 9.00065C16.1 9.00065 16.1 9.00065 16.1 9.00066C16.1 9.00066 16.1 9.00066 16.1 9.00066C16.1 9.00066 16.1 9.00066 16.1 9.00066C16.1 9.00066 16.1 9.00066 16.1 9.00066C16.1 9.00066 16.1 9.00066 16.1 9.00066C16.1 9.00066 16.1 9.00066 16.1 9.00066C16.1 9.00066 16.1 9.00067 16.1 9.00067C16.1 9.00067 16.1 9.00067 16.1 9.00067C16.1 9.00067 16.1 9.00067 16.1 9.00067C16.1 9.00067 16.1 9.00067 16.1 9.00067C16.1 9.00067 16.1 9.00067 16.1 9.00067C16.1 9.00067 16.1 9.00067 16.1 9.00067C16.1 9.00068 16.1 9.00068 16.1 9.00068C16.1 9.00068 16.1 9.00068 16.1 9.00068C16.1 9.00068 16.1 9.00068 16.1 9.00068C16.1 9.00068 16.1 9.00068 16.1 9.00068C16.1 9.00068 16.1 9.00068 16.1 9.00068C16.1 9.00068 16.1 9.00069 16.1 9.00069C16.1 9.00069 16.1 9.00069 16.1 9.00069C16.1 9.00069 16.1 9.00069 16.1 9.00069C16.1 9.00069 16.1 9.00069 16.1 9.00069C16.1 9.00069 16.1 9.00069 16.1 9.00069C16.1 9.00069 16.1 9.00069 16.1 9.00069C16.1 9.0007 16.1 9.0007 16.1 9.0007C16.1 9.0007 16.1 9.0007 16.1 9.0007C16.1 9.0007 16.1 9.0007 16.1 9.0007C16.1 9.0007 16.1 9.0007 16.1 9.0007C16.1 9.0007 16.1 9.0007 16.1 9.0007C16.1 9.0007 16.1 9.00071 16.1 9.00071C16.1 9.00071 16.1 9.00071 16.1 9.00071C16.1 9.00071 16.1 9.00071 16.1 9.00071C16.1 9.00071 16.1 9.00071 16.1 9.00071C16.1 9.00071 16.1 9.00071 16.1 9.00071C16.1 9.00071 16.1 9.00071 16.1 9.00071C16.1 9.00072 16.1 9.00072 16.1 9.00072C16.1 9.00072 16.1 9.00072 16.1 9.00072C16.1 9.00072 16.1 9.00072 16.1 9.00072C16.1 9.00072 16.1 9.00072 16.1 9.00072C16.1 9.00072 16.1 9.00072 16.1 9.00072C16.1 9.00072 16.1 9.00073 16.1 9.00073C16.1 9.00073 16.1 9.00073 16.1 9.00073C16.1 9.00073 16.1 9.00073 16.1 9.00073C16.1 9.00073 16.1 9.00073 16.1 9.00073C16.1 9.00073 16.1 9.00073 16.1 9.00073C16.1 9.00073 16.1 9.00073 16.1 9.00073C16.1 9.00074 16.1 9.00074 16.1 9.00074C16.1 9.00074 16.1 9.00074 16.1 9.00074C16.1 9.00074 16.1 9.00074 16.1 9.00074C16.1 9.00074 16.1 9.00074 16.1 9.00074C16.1 9.00074 16.1 9.00074 16.1 9.00074C16.1 9.00074 16.1 9.00075 16.1 9.00075C16.1 9.00075 16.1 9.00075 16.1 9.00075C16.1 9.00075 16.1 9.00075 16.1 9.00075C16.1 9.00075 16.1 9.00075 16.1 9.00075C16.1 9.00075 16.1 9.00075 16.1 9.00075C16.1 9.00075 16.1 9.00075 16.1 9.00075C16.1 9.00076 16.1 9.00076 16.1 9.00076C16.1 9.00076 16.1 9.00076 16.1 9.00076C16.1 9.00076 16.1 9.00076 16.1 9.00076C16.1 9.00076 16.1 9.00076 16.1 9.00076C16.1 9.00076 16.1 9.00076 16.1 9.00076C16.1 9.00076 16.1 9.00076 16.1 9.00077C16.1 9.00077 16.1 9.00077 16.1 9.00077C16.1 9.00077 16.1 9.00077 16.1 9.00077C16.1 9.00077 16.1 9.00077 16.1 9.00077C16.1 9.00077 16.1 9.00077 16.1 9.00077C16.1 9.00077 16.1 9.00077 16.1 9.00077C16.1 9.00078 16.1 9.00078 16.1 9.00078C16.1 9.00078 16.1 9.00078 16.1 9.00078C16.1 9.00078 16.1 9.00078 16.1 9.00078C16.1 9.00078 16.1 9.00078 16.1 9.00078C16.1 9.00078 16.1 9.00078 16.1 9.00078C16.1 9.00078 16.1 9.00078 16.1 9.00079C16.1 9.00079 16.1 9.00079 16.1 9.00079C16.1 9.00079 16.1 9.00079 16.1 9.00079C16.1 9.00079 16.1 9.00079 16.1 9.00079C16.1 9.00079 16.1 9.00079 16.1 9.00079C16.1 9.00079 16.1 9.00079 16.1 9.00079C16.1 9.0008 16.1 9.0008 16.1 9.0008C16.1 9.0008 16.1 9.0008 16.1 9.0008C16.1 9.0008 16.1 9.0008 16.1 9.0008C16.1 9.0008 16.1 9.0008 16.1 9.0008C16.1 9.0008 16.1 9.0008 16.1 9.0008C16.1 9.0008 16.1 9.0008 16.1 9.00081C16.1 9.00081 16.1 9.00081 16.1 9.00081C16.1 9.00081 16.1 9.00081 16.1 9.00081C16.1 9.00081 16.1 9.00081 16.1 9.00081C16.1 9.00081 16.1 9.00081 16.1 9.00081C16.1 9.00081 16.1 9.00081 16.1 9.00081C16.1 9.00082 16.1 9.00082 16.1 9.00082C16.1 9.00082 16.1 9.00082 16.1 9.00082C16.1 9.00082 16.1 9.00082 16.1 9.00082C16.1 9.00082 16.1 9.00082 16.1 9.00082C16.1 9.00082 16.1 9.00082 16.1 9.00082C16.1 9.00082 16.1 9.00082 16.1 9.00083C16.1 9.00083 16.1 9.00083 16.1 9.00083C16.1 9.00083 16.1 9.00083 16.1 9.00083C16.1 9.00083 16.1 9.00083 16.1 9.00083C16.1 9.00083 16.1 9.00083 16.1 9.00083C16.1 9.00083 16.1 9.00083 16.1 9.00083C16.1 9.00083 16.1 9.00084 16.1 9.00084C16.1 9.00084 16.1 9.00084 16.1 9.00084C16.1 9.00084 16.1 9.00084 16.1 9.00084C16.1 9.00084 16.1 9.00084 16.1 9.00084C16.1 9.00084 16.1 9.00084 16.1 9.00084C16.1 9.00084 16.1 9.00084 16.1 9.00085C16.1 9.00085 16.1 9.00085 16.1 9.00085C16.1 9.00085 16.1 9.00085 16.1 9.00085C16.1 9.00085 16.1 9.00085 16.1 9.00085C16.1 9.00085 16.1 9.00085 16.1 9.00085C16.1 9.00085 16.1 9.00085 16.1 9.00085C16.1 9.00085 16.1 9.00086 16.1 9.00086C16.1 9.00086 16.1 9.00086 16.1 9.00086C16.1 9.00086 16.1 9.00086 16.1 9.00086C16.1 9.00086 16.1 9.00086 16.1 9.00086C16.1 9.00086 16.1 9.00086 16.1 9.00086C16.1 9.00086 16.1 9.00086 16.1 9.00087C16.1 9.00087 16.1 9.00087 16.1 9.00087C16.1 9.00087 16.1 9.00087 16.1 9.00087C16.1 9.00087 16.1 9.00087 16.1 9.00087C16.1 9.00087 16.1 9.00087 16.1 9.00087C16.1 9.00087 16.1 9.00087 16.1 9.00087C16.1 9.00087 16.1 9.00088 16.1 9.00088C16.1 9.00088 16.1 9.00088 16.1 9.00088C16.1 9.00088 16.1 9.00088 16.1 9.00088C16.1 9.00088 16.1 9.00088 16.1 9.00088C16.1 9.00088 16.1 9.00088 16.1 9.00088C16.1 9.00088 16.1 9.00088 16.1 9.00089C16.1 9.00089 16.1 9.00089 16.1 9.00089C16.1 9.00089 16.1 9.00089 16.1 9.00089C16.1 9.00089 16.1 9.00089 16.1 9.00089C16.1 9.00089 16.1 9.00089 16.1 9.00089C16.1 9.00089 16.1 9.00089 16.1 9.00089C16.1 9.0009 16.1 9.0009 16.1 9.0009C16.1 9.0009 16.1 9.0009 16.1 9.0009C16.1 9.0009 16.1 9.0009 16.1 9.0009C16.1 9.0009 16.1 9.0009 16.1 9.0009C16.1 9.0009 16.1 9.0009 16.1 9.0009C16.1 9.0009 16.1 9.0009 16.1 9.00091C16.1 9.00091 16.1 9.00091 16.1 9.00091C16.1 9.00091 16.1 9.00091 16.1 9.00091C16.1 9.00091 16.1 9.00091 16.1 9.00091C16.1 9.00091 16.1 9.00091 16.1 9.00091C16.1 9.00091 16.1 9.00091 16.1 9.00091C16.1 9.00092 16.1 9.00092 16.1 9.00092C16.1 9.00092 16.1 9.00092 16.1 9.00092C16.1 9.00092 16.1 9.00092 16.1 9.00092C16.1 9.00092 16.1 9.00092 16.1 9.00092C16.1 9.00092 16.1 9.00092 16.1 9.00092C16.1 9.00092 16.1 9.00092 16.1 9.00093C16.1 9.00093 16.1 9.00093 16.1 9.00093C16.1 9.00093 16.1 9.00093 16.1 9.00093H17.9C17.9 9.00093 17.9 9.00093 17.9 9.00093C17.9 9.00093 17.9 9.00093 17.9 9.00093C17.9 9.00092 17.9 9.00092 17.9 9.00092C17.9 9.00092 17.9 9.00092 17.9 9.00092C17.9 9.00092 17.9 9.00092 17.9 9.00092C17.9 9.00092 17.9 9.00092 17.9 9.00092C17.9 9.00092 17.9 9.00092 17.9 9.00092C17.9 9.00092 17.9 9.00092 17.9 9.00091C17.9 9.00091 17.9 9.00091 17.9 9.00091C17.9 9.00091 17.9 9.00091 17.9 9.00091C17.9 9.00091 17.9 9.00091 17.9 9.00091C17.9 9.00091 17.9 9.00091 17.9 9.00091C17.9 9.00091 17.9 9.00091 17.9 9.00091C17.9 9.0009 17.9 9.0009 17.9 9.0009C17.9 9.0009 17.9 9.0009 17.9 9.0009C17.9 9.0009 17.9 9.0009 17.9 9.0009C17.9 9.0009 17.9 9.0009 17.9 9.0009C17.9 9.0009 17.9 9.0009 17.9 9.0009C17.9 9.0009 17.9 9.0009 17.9 9.00089C17.9 9.00089 17.9 9.00089 17.9 9.00089C17.9 9.00089 17.9 9.00089 17.9 9.00089C17.9 9.00089 17.9 9.00089 17.9 9.00089C17.9 9.00089 17.9 9.00089 17.9 9.00089C17.9 9.00089 17.9 9.00089 17.9 9.00089C17.9 9.00088 17.9 9.00088 17.9 9.00088C17.9 9.00088 17.9 9.00088 17.9 9.00088C17.9 9.00088 17.9 9.00088 17.9 9.00088C17.9 9.00088 17.9 9.00088 17.9 9.00088C17.9 9.00088 17.9 9.00088 17.9 9.00088C17.9 9.00088 17.9 9.00087 17.9 9.00087C17.9 9.00087 17.9 9.00087 17.9 9.00087C17.9 9.00087 17.9 9.00087 17.9 9.00087C17.9 9.00087 17.9 9.00087 17.9 9.00087C17.9 9.00087 17.9 9.00087 17.9 9.00087C17.9 9.00087 17.9 9.00087 17.9 9.00087C17.9 9.00086 17.9 9.00086 17.9 9.00086C17.9 9.00086 17.9 9.00086 17.9 9.00086C17.9 9.00086 17.9 9.00086 17.9 9.00086C17.9 9.00086 17.9 9.00086 17.9 9.00086C17.9 9.00086 17.9 9.00086 17.9 9.00086C17.9 9.00086 17.9 9.00085 17.9 9.00085C17.9 9.00085 17.9 9.00085 17.9 9.00085C17.9 9.00085 17.9 9.00085 17.9 9.00085C17.9 9.00085 17.9 9.00085 17.9 9.00085C17.9 9.00085 17.9 9.00085 17.9 9.00085C17.9 9.00085 17.9 9.00085 17.9 9.00085C17.9 9.00084 17.9 9.00084 17.9 9.00084C17.9 9.00084 17.9 9.00084 17.9 9.00084C17.9 9.00084 17.9 9.00084 17.9 9.00084C17.9 9.00084 17.9 9.00084 17.9 9.00084C17.9 9.00084 17.9 9.00084 17.9 9.00084C17.9 9.00084 17.9 9.00083 17.9 9.00083C17.9 9.00083 17.9 9.00083 17.9 9.00083C17.9 9.00083 17.9 9.00083 17.9 9.00083C17.9 9.00083 17.9 9.00083 17.9 9.00083C17.9 9.00083 17.9 9.00083 17.9 9.00083C17.9 9.00083 17.9 9.00083 17.9 9.00083C17.9 9.00082 17.9 9.00082 17.9 9.00082C17.9 9.00082 17.9 9.00082 17.9 9.00082C17.9 9.00082 17.9 9.00082 17.9 9.00082C17.9 9.00082 17.9 9.00082 17.9 9.00082C17.9 9.00082 17.9 9.00082 17.9 9.00082C17.9 9.00082 17.9 9.00082 17.9 9.00081C17.9 9.00081 17.9 9.00081 17.9 9.00081C17.9 9.00081 17.9 9.00081 17.9 9.00081C17.9 9.00081 17.9 9.00081 17.9 9.00081C17.9 9.00081 17.9 9.00081 17.9 9.00081C17.9 9.00081 17.9 9.00081 17.9 9.00081C17.9 9.0008 17.9 9.0008 17.9 9.0008C17.9 9.0008 17.9 9.0008 17.9 9.0008C17.9 9.0008 17.9 9.0008 17.9 9.0008C17.9 9.0008 17.9 9.0008 17.9 9.0008C17.9 9.0008 17.9 9.0008 17.9 9.0008C17.9 9.0008 17.9 9.0008 17.9 9.00079C17.9 9.00079 17.9 9.00079 17.9 9.00079C17.9 9.00079 17.9 9.00079 17.9 9.00079C17.9 9.00079 17.9 9.00079 17.9 9.00079C17.9 9.00079 17.9 9.00079 17.9 9.00079C17.9 9.00079 17.9 9.00079 17.9 9.00079C17.9 9.00078 17.9 9.00078 17.9 9.00078C17.9 9.00078 17.9 9.00078 17.9 9.00078C17.9 9.00078 17.9 9.00078 17.9 9.00078C17.9 9.00078 17.9 9.00078 17.9 9.00078C17.9 9.00078 17.9 9.00078 17.9 9.00078C17.9 9.00078 17.9 9.00078 17.9 9.00077C17.9 9.00077 17.9 9.00077 17.9 9.00077C17.9 9.00077 17.9 9.00077 17.9 9.00077C17.9 9.00077 17.9 9.00077 17.9 9.00077C17.9 9.00077 17.9 9.00077 17.9 9.00077C17.9 9.00077 17.9 9.00077 17.9 9.00077C17.9 9.00076 17.9 9.00076 17.9 9.00076C17.9 9.00076 17.9 9.00076 17.9 9.00076C17.9 9.00076 17.9 9.00076 17.9 9.00076C17.9 9.00076 17.9 9.00076 17.9 9.00076C17.9 9.00076 17.9 9.00076 17.9 9.00076C17.9 9.00076 17.9 9.00076 17.9 9.00075C17.9 9.00075 17.9 9.00075 17.9 9.00075C17.9 9.00075 17.9 9.00075 17.9 9.00075C17.9 9.00075 17.9 9.00075 17.9 9.00075C17.9 9.00075 17.9 9.00075 17.9 9.00075C17.9 9.00075 17.9 9.00075 17.9 9.00075C17.9 9.00075 17.9 9.00074 17.9 9.00074C17.9 9.00074 17.9 9.00074 17.9 9.00074C17.9 9.00074 17.9 9.00074 17.9 9.00074C17.9 9.00074 17.9 9.00074 17.9 9.00074C17.9 9.00074 17.9 9.00074 17.9 9.00074C17.9 9.00074 17.9 9.00074 17.9 9.00073C17.9 9.00073 17.9 9.00073 17.9 9.00073C17.9 9.00073 17.9 9.00073 17.9 9.00073C17.9 9.00073 17.9 9.00073 17.9 9.00073C17.9 9.00073 17.9 9.00073 17.9 9.00073C17.9 9.00073 17.9 9.00073 17.9 9.00073C17.9 9.00073 17.9 9.00072 17.9 9.00072C17.9 9.00072 17.9 9.00072 17.9 9.00072C17.9 9.00072 17.9 9.00072 17.9 9.00072C17.9 9.00072 17.9 9.00072 17.9 9.00072C17.9 9.00072 17.9 9.00072 17.9 9.00072C17.9 9.00072 17.9 9.00072 17.9 9.00071C17.9 9.00071 17.9 9.00071 17.9 9.00071C17.9 9.00071 17.9 9.00071 17.9 9.00071C17.9 9.00071 17.9 9.00071 17.9 9.00071C17.9 9.00071 17.9 9.00071 17.9 9.00071C17.9 9.00071 17.9 9.00071 17.9 9.00071C17.9 9.00071 17.9 9.0007 17.9 9.0007C17.9 9.0007 17.9 9.0007 17.9 9.0007C17.9 9.0007 17.9 9.0007 17.9 9.0007C17.9 9.0007 17.9 9.0007 17.9 9.0007C17.9 9.0007 17.9 9.0007 17.9 9.0007C17.9 9.0007 17.9 9.0007 17.9 9.00069C17.9 9.00069 17.9 9.00069 17.9 9.00069C17.9 9.00069 17.9 9.00069 17.9 9.00069C17.9 9.00069 17.9 9.00069 17.9 9.00069C17.9 9.00069 17.9 9.00069 17.9 9.00069C17.9 9.00069 17.9 9.00069 17.9 9.00069C17.9 9.00069 17.9 9.00068 17.9 9.00068C17.9 9.00068 17.9 9.00068 17.9 9.00068C17.9 9.00068 17.9 9.00068 17.9 9.00068C17.9 9.00068 17.9 9.00068 17.9 9.00068C17.9 9.00068 17.9 9.00068 17.9 9.00068C17.9 9.00068 17.9 9.00068 17.9 9.00067C17.9 9.00067 17.9 9.00067 17.9 9.00067C17.9 9.00067 17.9 9.00067 17.9 9.00067C17.9 9.00067 17.9 9.00067 17.9 9.00067C17.9 9.00067 17.9 9.00067 17.9 9.00067C17.9 9.00067 17.9 9.00067 17.9 9.00067C17.9 9.00067 17.9 9.00066 17.9 9.00066C17.9 9.00066 17.9 9.00066 17.9 9.00066C17.9 9.00066 17.9 9.00066 17.9 9.00066C17.9 9.00066 17.9 9.00066 17.9 9.00066C17.9 9.00066 17.9 9.00066 17.9 9.00066C17.9 9.00066 17.9 9.00066 17.9 9.00066C17.9 9.00065 17.9 9.00065 17.9 9.00065C17.9 9.00065 17.9 9.00065 17.9 9.00065C17.9 9.00065 17.9 9.00065 17.9 9.00065C17.9 9.00065 17.9 9.00065 17.9 9.00065C17.9 9.00065 17.9 9.00065 17.9 9.00065C17.9 9.00065 17.9 9.00064 17.9 9.00064C17.9 9.00064 17.9 9.00064 17.9 9.00064C17.9 9.00064 17.9 9.00064 17.9 9.00064C17.9 9.00064 17.9 9.00064 17.9 9.00064C17.9 9.00064 17.9 9.00064 17.9 9.00064C17.9 9.00064 17.9 9.00064 17.9 9.00064C17.9 9.00063 17.9 9.00063 17.9 9.00063C17.9 9.00063 17.9 9.00063 17.9 9.00063C17.9 9.00063 17.9 9.00063 17.9 9.00063C17.9 9.00063 17.9 9.00063 17.9 9.00063C17.9 9.00063 17.9 9.00063 17.9 9.00063C17.9 9.00063 17.9 9.00062 17.9 9.00062C17.9 9.00062 17.9 9.00062 17.9 9.00062C17.9 9.00062 17.9 9.00062 17.9 9.00062C17.9 9.00062 17.9 9.00062 17.9 9.00062C17.9 9.00062 17.9 9.00062 17.9 9.00062C17.9 9.00062 17.9 9.00062 17.9 9.00062C17.9 9.00061 17.9 9.00061 17.9 9.00061C17.9 9.00061 17.9 9.00061 17.9 9.00061C17.9 9.00061 17.9 9.00061 17.9 9.00061C17.9 9.00061 17.9 9.00061 17.9 9.00061C17.9 9.00061 17.9 9.00061 17.9 9.00061C17.9 9.00061 17.9 9.0006 17.9 9.0006C17.9 9.0006 17.9 9.0006 17.9 9.0006C17.9 9.0006 17.9 9.0006 17.9 9.0006C17.9 9.0006 17.9 9.0006 17.9 9.0006C17.9 9.0006 17.9 9.0006 17.9 9.0006C17.9 9.0006 17.9 9.0006 17.9 9.0006C17.9 9.00059 17.9 9.00059 17.9 9.00059C17.9 9.00059 17.9 9.00059 17.9 9.00059C17.9 9.00059 17.9 9.00059 17.9 9.00059C17.9 9.00059 17.9 9.00059 17.9 9.00059C17.9 9.00059 17.9 9.00059 17.9 9.00059C17.9 9.00059 17.9 9.00058 17.9 9.00058C17.9 9.00058 17.9 9.00058 17.9 9.00058C17.9 9.00058 17.9 9.00058 17.9 9.00058C17.9 9.00058 17.9 9.00058 17.9 9.00058C17.9 9.00058 17.9 9.00058 17.9 9.00058C17.9 9.00058 17.9 9.00058 17.9 9.00058C17.9 9.00057 17.9 9.00057 17.9 9.00057C17.9 9.00057 17.9 9.00057 17.9 9.00057C17.9 9.00057 17.9 9.00057 17.9 9.00057C17.9 9.00057 17.9 9.00057 17.9 9.00057C17.9 9.00057 17.9 9.00057 17.9 9.00057C17.9 9.00057 17.9 9.00057 17.9 9.00056C17.9 9.00056 17.9 9.00056 17.9 9.00056C17.9 9.00056 17.9 9.00056 17.9 9.00056C17.9 9.00056 17.9 9.00056 17.9 9.00056C17.9 9.00056 17.9 9.00056 17.9 9.00056C17.9 9.00056 17.9 9.00056 17.9 9.00056C17.9 9.00055 17.9 9.00055 17.9 9.00055C17.9 9.00055 17.9 9.00055 17.9 9.00055C17.9 9.00055 17.9 9.00055 17.9 9.00055C17.9 9.00055 17.9 9.00055 17.9 9.00055C17.9 9.00055 17.9 9.00055 17.9 9.00055C17.9 9.00055 17.9 9.00055 17.9 9.00054C17.9 9.00054 17.9 9.00054 17.9 9.00054C17.9 9.00054 17.9 9.00054 17.9 9.00054C17.9 9.00054 17.9 9.00054 17.9 9.00054C17.9 9.00054 17.9 9.00054 17.9 9.00054C17.9 9.00054 17.9 9.00054 17.9 9.00054C17.9 9.00053 17.9 9.00053 17.9 9.00053C17.9 9.00053 17.9 9.00053 17.9 9.00053C17.9 9.00053 17.9 9.00053 17.9 9.00053C17.9 9.00053 17.9 9.00053 17.9 9.00053C17.9 9.00053 17.9 9.00053 17.9 9.00053C17.9 9.00053 17.9 9.00052 17.9 9.00052C17.9 9.00052 17.9 9.00052 17.9 9.00052C17.9 9.00052 17.9 9.00052 17.9 9.00052C17.9 9.00052 17.9 9.00052 17.9 9.00052C17.9 9.00052 17.9 9.00052 17.9 9.00052C17.9 9.00052 17.9 9.00052 17.9 9.00052C17.9 9.00051 17.9 9.00051 17.9 9.00051C17.9 9.00051 17.9 9.00051 17.9 9.00051C17.9 9.00051 17.9 9.00051 17.9 9.00051C17.9 9.00051 17.9 9.00051 17.9 9.00051C17.9 9.00051 17.9 9.00051 17.9 9.00051C17.9 9.00051 17.9 9.0005 17.9 9.0005C17.9 9.0005 17.9 9.0005 17.9 9.0005C17.9 9.0005 17.9 9.0005 17.9 9.0005C17.9 9.0005 17.9 9.0005 17.9 9.0005C17.9 9.0005 17.9 9.0005 17.9 9.0005C17.9 9.0005 17.9 9.0005 17.9 9.0005C17.9 9.00049 17.9 9.00049 17.9 9.00049C17.9 9.00049 17.9 9.00049 17.9 9.00049C17.9 9.00049 17.9 9.00049 17.9 9.00049C17.9 9.00049 17.9 9.00049 17.9 9.00049C17.9 9.00049 17.9 9.00049 17.9 9.00049C17.9 9.00049 17.9 9.00048 17.9 9.00048C17.9 9.00048 17.9 9.00048 17.9 9.00048C17.9 9.00048 17.9 9.00048 17.9 9.00048C17.9 9.00048 17.9 9.00048 17.9 9.00048C17.9 9.00048 17.9 9.00048 17.9 9.00048C17.9 9.00048 17.9 9.00048 17.9 9.00048C17.9 9.00047 17.9 9.00047 17.9 9.00047C17.9 9.00047 17.9 9.00047 17.9 9.00047C17.9 9.00047 17.9 9.00047 17.9 9.00047C17.9 9.00047 17.9 9.00047 17.9 9.00047C17.9 9.00047 17.9 9.00047 17.9 9.00047C17.9 9.00047 17.9 9.00046 17.9 9.00046C17.9 9.00046 17.9 9.00046 17.9 9.00046C17.9 9.00046 17.9 9.00046 17.9 9.00046C17.9 9.00046 17.9 9.00046 17.9 9.00046C17.9 9.00046 17.9 9.00046 17.9 9.00046C17.9 9.00046 17.9 9.00046 17.9 9.00046C17.9 9.00045 17.9 9.00045 17.9 9.00045C17.9 9.00045 17.9 9.00045 17.9 9.00045C17.9 9.00045 17.9 9.00045 17.9 9.00045C17.9 9.00045 17.9 9.00045 17.9 9.00045C17.9 9.00045 17.9 9.00045 17.9 9.00045C17.9 9.00045 17.9 9.00044 17.9 9.00044C17.9 9.00044 17.9 9.00044 17.9 9.00044C17.9 9.00044 17.9 9.00044 17.9 9.00044C17.9 9.00044 17.9 9.00044 17.9 9.00044C17.9 9.00044 17.9 9.00044 17.9 9.00044C17.9 9.00044 17.9 9.00044 17.9 9.00044C17.9 9.00043 17.9 9.00043 17.9 9.00043C17.9 9.00043 17.9 9.00043 17.9 9.00043C17.9 9.00043 17.9 9.00043 17.9 9.00043C17.9 9.00043 17.9 9.00043 17.9 9.00043C17.9 9.00043 17.9 9.00043 17.9 9.00043C17.9 9.00043 17.9 9.00043 17.9 9.00042C17.9 9.00042 17.9 9.00042 17.9 9.00042C17.9 9.00042 17.9 9.00042 17.9 9.00042C17.9 9.00042 17.9 9.00042 17.9 9.00042C17.9 9.00042 17.9 9.00042 17.9 9.00042C17.9 9.00042 17.9 9.00042 17.9 9.00042C17.9 9.00041 17.9 9.00041 17.9 9.00041C17.9 9.00041 17.9 9.00041 17.9 9.00041C17.9 9.00041 17.9 9.00041 17.9 9.00041C17.9 9.00041 17.9 9.00041 17.9 9.00041C17.9 9.00041 17.9 9.00041 17.9 9.00041C17.9 9.00041 17.9 9.00041 17.9 9.0004C17.9 9.0004 17.9 9.0004 17.9 9.0004C17.9 9.0004 17.9 9.0004 17.9 9.0004C17.9 9.0004 17.9 9.0004 17.9 9.0004C17.9 9.0004 17.9 9.0004 17.9 9.0004C17.9 9.0004 17.9 9.0004 17.9 9.0004C17.9 9.00039 17.9 9.00039 17.9 9.00039C17.9 9.00039 17.9 9.00039 17.9 9.00039C17.9 9.00039 17.9 9.00039 17.9 9.00039C17.9 9.00039 17.9 9.00039 17.9 9.00039C17.9 9.00039 17.9 9.00039 17.9 9.00039C17.9 9.00039 17.9 9.00039 17.9 9.00038C17.9 9.00038 17.9 9.00038 17.9 9.00038C17.9 9.00038 17.9 9.00038 17.9 9.00038C17.9 9.00038 17.9 9.00038 17.9 9.00038C17.9 9.00038 17.9 9.00038 17.9 9.00038C17.9 9.00038 17.9 9.00038 17.9 9.00038C17.9 9.00037 17.9 9.00037 17.9 9.00037C17.9 9.00037 17.9 9.00037 17.9 9.00037C17.9 9.00037 17.9 9.00037 17.9 9.00037C17.9 9.00037 17.9 9.00037 17.9 9.00037C17.9 9.00037 17.9 9.00037 17.9 9.00037C17.9 9.00037 17.9 9.00037 17.9 9.00036C17.9 9.00036 17.9 9.00036 17.9 9.00036C17.9 9.00036 17.9 9.00036 17.9 9.00036C17.9 9.00036 17.9 9.00036 17.9 9.00036C17.9 9.00036 17.9 9.00036 17.9 9.00036C17.9 9.00036 17.9 9.00036 17.9 9.00036C17.9 9.00035 17.9 9.00035 17.9 9.00035C17.9 9.00035 17.9 9.00035 17.9 9.00035C17.9 9.00035 17.9 9.00035 17.9 9.00035C17.9 9.00035 17.9 9.00035 17.9 9.00035C17.9 9.00035 17.9 9.00035 17.9 9.00035C17.9 9.00035 17.9 9.00035 17.9 9.00034C17.9 9.00034 17.9 9.00034 17.9 9.00034C17.9 9.00034 17.9 9.00034 17.9 9.00034C17.9 9.00034 17.9 9.00034 17.9 9.00034C17.9 9.00034 17.9 9.00034 17.9 9.00034C17.9 9.00034 17.9 9.00034 17.9 9.00034C17.9 9.00034 17.9 9.00033 17.9 9.00033C17.9 9.00033 17.9 9.00033 17.9 9.00033C17.9 9.00033 17.9 9.00033 17.9 9.00033C17.9 9.00033 17.9 9.00033 17.9 9.00033C17.9 9.00033 17.9 9.00033 17.9 9.00033C17.9 9.00033 17.9 9.00033 17.9 9.00032C17.9 9.00032 17.9 9.00032 17.9 9.00032C17.9 9.00032 17.9 9.00032 17.9 9.00032C17.9 9.00032 17.9 9.00032 17.9 9.00032C17.9 9.00032 17.9 9.00032 17.9 9.00032C17.9 9.00032 17.9 9.00032 17.9 9.00032C17.9 9.00032 17.9 9.00031 17.9 9.00031C17.9 9.00031 17.9 9.00031 17.9 9.00031C17.9 9.00031 17.9 9.00031 17.9 9.00031C17.9 9.00031 17.9 9.00031 17.9 9.00031C17.9 9.00031 17.9 9.00031 17.9 9.00031C17.9 9.00031 17.9 9.00031 17.9 9.0003C17.9 9.0003 17.9 9.0003 17.9 9.0003C17.9 9.0003 17.9 9.0003 17.9 9.0003C17.9 9.0003 17.9 9.0003 17.9 9.0003C17.9 9.0003 17.9 9.0003 17.9 9.0003C17.9 9.0003 17.9 9.0003 17.9 9.0003C17.9 9.0003 17.9 9.00029 17.9 9.00029C17.9 9.00029 17.9 9.00029 17.9 9.00029C17.9 9.00029 17.9 9.00029 17.9 9.00029C17.9 9.00029 17.9 9.00029 17.9 9.00029C17.9 9.00029 17.9 9.00029 17.9 9.00029C17.9 9.00029 17.9 9.00029 17.9 9.00028C17.9 9.00028 17.9 9.00028 17.9 9.00028C17.9 9.00028 17.9 9.00028 17.9 9.00028C17.9 9.00028 17.9 9.00028 17.9 9.00028C17.9 9.00028 17.9 9.00028 17.9 9.00028C17.9 9.00028 17.9 9.00028 17.9 9.00028C17.9 9.00028 17.9 9.00027 17.9 9.00027C17.9 9.00027 17.9 9.00027 17.9 9.00027C17.9 9.00027 17.9 9.00027 17.9 9.00027C17.9 9.00027 17.9 9.00027 17.9 9.00027C17.9 9.00027 17.9 9.00027 17.9 9.00027C17.9 9.00027 17.9 9.00027 17.9 9.00026C17.9 9.00026 17.9 9.00026 17.9 9.00026C17.9 9.00026 17.9 9.00026 17.9 9.00026C17.9 9.00026 17.9 9.00026 17.9 9.00026C17.9 9.00026 17.9 9.00026 17.9 9.00026C17.9 9.00026 17.9 9.00026 17.9 9.00026C17.9 9.00026 17.9 9.00025 17.9 9.00025C17.9 9.00025 17.9 9.00025 17.9 9.00025C17.9 9.00025 17.9 9.00025 17.9 9.00025C17.9 9.00025 17.9 9.00025 17.9 9.00025C17.9 9.00025 17.9 9.00025 17.9 9.00025C17.9 9.00025 17.9 9.00025 17.9 9.00025C17.9 9.00024 17.9 9.00024 17.9 9.00024C17.9 9.00024 17.9 9.00024 17.9 9.00024C17.9 9.00024 17.9 9.00024 17.9 9.00024C17.9 9.00024 17.9 9.00024 17.9 9.00024C17.9 9.00024 17.9 9.00024 17.9 9.00024C17.9 9.00024 17.9 9.00023 17.9 9.00023C17.9 9.00023 17.9 9.00023 17.9 9.00023C17.9 9.00023 17.9 9.00023 17.9 9.00023C17.9 9.00023 17.9 9.00023 17.9 9.00023C17.9 9.00023 17.9 9.00023 17.9 9.00023C17.9 9.00023 17.9 9.00023 17.9 9.00023C17.9 9.00022 17.9 9.00022 17.9 9.00022C17.9 9.00022 17.9 9.00022 17.9 9.00022C17.9 9.00022 17.9 9.00022 17.9 9.00022C17.9 9.00022 17.9 9.00022 17.9 9.00022C17.9 9.00022 17.9 9.00022 17.9 9.00022C17.9 9.00022 17.9 9.00021 17.9 9.00021C17.9 9.00021 17.9 9.00021 17.9 9.00021C17.9 9.00021 17.9 9.00021 17.9 9.00021C17.9 9.00021 17.9 9.00021 17.9 9.00021C17.9 9.00021 17.9 9.00021 17.9 9.00021C17.9 9.00021 17.9 9.00021 17.9 9.00021C17.9 9.0002 17.9 9.0002 17.9 9.0002C17.9 9.0002 17.9 9.0002 17.9 9.0002C17.9 9.0002 17.9 9.0002 17.9 9.0002C17.9 9.0002 17.9 9.0002 17.9 9.0002C17.9 9.0002 17.9 9.0002 17.9 9.0002C17.9 9.0002 17.9 9.00019 17.9 9.00019C17.9 9.00019 17.9 9.00019 17.9 9.00019C17.9 9.00019 17.9 9.00019 17.9 9.00019C17.9 9.00019 17.9 9.00019 17.9 9.00019C17.9 9.00019 17.9 9.00019 17.9 9.00019C17.9 9.00019 17.9 9.00019 17.9 9.00019C17.9 9.00018 17.9 9.00018 17.9 9.00018C17.9 9.00018 17.9 9.00018 17.9 9.00018C17.9 9.00018 17.9 9.00018 17.9 9.00018C17.9 9.00018 17.9 9.00018 17.9 9.00018C17.9 9.00018 17.9 9.00018 17.9 9.00018C17.9 9.00018 17.9 9.00017 17.9 9.00017C17.9 9.00017 17.9 9.00017 17.9 9.00017C17.9 9.00017 17.9 9.00017 17.9 9.00017C17.9 9.00017 17.9 9.00017 17.9 9.00017C17.9 9.00017 17.9 9.00017 17.9 9.00017C17.9 9.00017 17.9 9.00017 17.9 9.00016C17.9 9.00016 17.9 9.00016 17.9 9.00016C17.9 9.00016 17.9 9.00016 17.9 9.00016C17.9 9.00016 17.9 9.00016 17.9 9.00016C17.9 9.00016 17.9 9.00016 17.9 9.00016C17.9 9.00016 17.9 9.00016 17.9 9.00016C17.9 9.00016 17.9 9.00015 17.9 9.00015C17.9 9.00015 17.9 9.00015 17.9 9.00015C17.9 9.00015 17.9 9.00015 17.9 9.00015C17.9 9.00015 17.9 9.00015 17.9 9.00015C17.9 9.00015 17.9 9.00015 17.9 9.00015C17.9 9.00015 17.9 9.00015 17.9 9.00014C17.9 9.00014 17.9 9.00014 17.9 9.00014C17.9 9.00014 17.9 9.00014 17.9 9.00014C17.9 9.00014 17.9 9.00014 17.9 9.00014C17.9 9.00014 17.9 9.00014 17.9 9.00014C17.9 9.00014 17.9 9.00014 17.9 9.00014C17.9 9.00014 17.9 9.00013 17.9 9.00013C17.9 9.00013 17.9 9.00013 17.9 9.00013C17.9 9.00013 17.9 9.00013 17.9 9.00013C17.9 9.00013 17.9 9.00013 17.9 9.00013C17.9 9.00013 17.9 9.00013 17.9 9.00013C17.9 9.00013 17.9 9.00013 17.9 9.00012C17.9 9.00012 17.9 9.00012 17.9 9.00012C17.9 9.00012 17.9 9.00012 17.9 9.00012C17.9 9.00012 17.9 9.00012 17.9 9.00012C17.9 9.00012 17.9 9.00012 17.9 9.00012C17.9 9.00012 17.9 9.00012 17.9 9.00012C17.9 9.00012 17.9 9.00011 17.9 9.00011C17.9 9.00011 17.9 9.00011 17.9 9.00011C17.9 9.00011 17.9 9.00011 17.9 9.00011C17.9 9.00011 17.9 9.00011 17.9 9.00011C17.9 9.00011 17.9 9.00011 17.9 9.00011C17.9 9.00011 17.9 9.00011 17.9 9.00011C17.9 9.0001 17.9 9.0001 17.9 9.0001C17.9 9.0001 17.9 9.0001 17.9 9.0001C17.9 9.0001 17.9 9.0001 17.9 9.0001C17.9 9.0001 17.9 9.0001 17.9 9.0001C17.9 9.0001 17.9 9.0001 17.9 9.0001C17.9 9.0001 17.9 9.00009 17.9 9.00009C17.9 9.00009 17.9 9.00009 17.9 9.00009C17.9 9.00009 17.9 9.00009 17.9 9.00009C17.9 9.00009 17.9 9.00009 17.9 9.00009C17.9 9.00009 17.9 9.00009 17.9 9.00009C17.9 9.00009 17.9 9.00009 17.9 9.00009C17.9 9.00008 17.9 9.00008 17.9 9.00008C17.9 9.00008 17.9 9.00008 17.9 9.00008C17.9 9.00008 17.9 9.00008 17.9 9.00008C17.9 9.00008 17.9 9.00008 17.9 9.00008C17.9 9.00008 17.9 9.00008 17.9 9.00008C17.9 9.00008 17.9 9.00007 17.9 9.00007C17.9 9.00007 17.9 9.00007 17.9 9.00007C17.9 9.00007 17.9 9.00007 17.9 9.00007C17.9 9.00007 17.9 9.00007 17.9 9.00007C17.9 9.00007 17.9 9.00007 17.9 9.00007C17.9 9.00007 17.9 9.00007 17.9 9.00007C17.9 9.00006 17.9 9.00006 17.9 9.00006C17.9 9.00006 17.9 9.00006 17.9 9.00006C17.9 9.00006 17.9 9.00006 17.9 9.00006C17.9 9.00006 17.9 9.00006 17.9 9.00006C17.9 9.00006 17.9 9.00006 17.9 9.00006C17.9 9.00006 17.9 9.00005 17.9 9.00005C17.9 9.00005 17.9 9.00005 17.9 9.00005C17.9 9.00005 17.9 9.00005 17.9 9.00005C17.9 9.00005 17.9 9.00005 17.9 9.00005C17.9 9.00005 17.9 9.00005 17.9 9.00005C17.9 9.00005 17.9 9.00005 17.9 9.00005C17.9 9.00004 17.9 9.00004 17.9 9.00004C17.9 9.00004 17.9 9.00004 17.9 9.00004C17.9 9.00004 17.9 9.00004 17.9 9.00004C17.9 9.00004 17.9 9.00004 17.9 9.00004C17.9 9.00004 17.9 9.00004 17.9 9.00004C17.9 9.00004 17.9 9.00004 17.9 9.00003C17.9 9.00003 17.9 9.00003 17.9 9.00003C17.9 9.00003 17.9 9.00003 17.9 9.00003C17.9 9.00003 17.9 9.00003 17.9 9.00003C17.9 9.00003 17.9 9.00003 17.9 9.00003C17.9 9.00003 17.9 9.00003 17.9 9.00003C17.9 9.00002 17.9 9.00002 17.9 9.00002C17.9 9.00002 17.9 9.00002 17.9 9.00002C17.9 9.00002 17.9 9.00002 17.9 9.00002C17.9 9.00002 17.9 9.00002 17.9 9.00002C17.9 9.00002 17.9 9.00002 17.9 9.00002C17.9 9.00002 17.9 9.00002 17.9 9.00001C17.9 9.00001 17.9 9.00001 17.9 9.00001C17.9 9.00001 17.9 9.00001 17.9 9.00001C17.9 9.00001 17.9 9.00001 17.9 9.00001C17.9 9.00001 17.9 9.00001 17.9 9.00001C17.9 9.00001 17.9 9.00001 17.9 9.00001C17.9 9 17.9 9 17.9 9C17.9 9 17.9 9 17.9 9C17.9 9 17.9 9 17.9 9H16.1ZM12 4.9C14.2644 4.9 16.1 6.73563 16.1 9H17.9C17.9 5.74152 15.2585 3.1 12 3.1V4.9ZM7.9 9C7.9 6.73563 9.73563 4.9 12 4.9V3.1C8.74152 3.1 6.1 5.74152 6.1 9H7.9ZM11.9365 13.0995C9.70159 13.0657 7.9 11.2432 7.9 9H6.1C6.1 12.2282 8.69249 14.8507 11.9093 14.8993L11.9365 13.0995ZM9.80032 20.3564C11.7103 18.7555 12.4955 16.2642 12.8131 14.132L11.0327 13.8668C10.7375 15.849 10.047 17.8009 8.64401 18.9769L9.80032 20.3564ZM16.1015 9.0534C16.3406 13.1467 15.2611 15.491 13.8954 16.8388C12.5074 18.2085 10.6808 18.6913 9.17646 18.7678L9.26787 20.5655C11.0413 20.4753 13.3533 19.9027 15.1598 18.1199C16.9885 16.3152 18.159 13.4099 17.8985 8.94845L16.1015 9.0534Z" />
</svg>
