<svg xmlns="http://www.w3.org/2000/svg" viewBox="0 0 188.57 180.05" fill="currentColor"><g id="Layer_2" data-name="Layer 2"><g id="Layer_1-2" data-name="Layer 1">
  <path d="M16.7.15,27.63,12.9,38.26.18c4,4.44,7.36,8.11,11.09,12.22L60.37,0,71.56,13.19,82.72.13c3.86,4.42,7.14,8.18,11,12.62L104.25.17c6,6,11.25,11.08,16.19,16.41.92,1,.85,3.1.86,4.69.06,15.82,0,31.63,0,48.09,2,.11,3.73.29,5.47.3,12.83,0,25.66-.06,38.49,0,14,.08,23.18,9.17,23.24,23.11.06,16.33,0,32.66,0,49,0,1.46-.15,2.92-.26,4.9H155.1c0,3.77,0,7,0,10.3-.19,13.23-8.9,22.78-22,22.88-35.66.25-71.31.29-107-.06C11.33,179.65.17,167.9.11,152.92c-.19-44.15-.1-88.3,0-132.45a8.57,8.57,0,0,1,2.08-5.22C6.52,10.42,11.15,5.86,16.7.15Zm95.64,169.14c-.64-5.64-1.63-10.38-1.64-15.13q-.2-63.49,0-127c0-5-1.9-8.1-6.8-11.17L93.71,28.21,82.67,15l-11,13.28L60.89,15.12c-4,4.73-7.23,8.52-11.31,13.35L39.35,15.61,26.23,28.15,16.76,16.47c-5,3-6.13,6.77-6.11,11.74.19,40.5.09,81,.1,121.49,0,13.21,6.39,19.6,19.62,19.61q38.75,0,77.49,0Zm9.22-88.54c-.09,1.36-.22,2.33-.22,3.29,0,24.13,0,48.26,0,72.39,0,7.73,4.9,13,11.61,12.84s11.31-5.53,11.32-13.17c0-18.8-.09-37.61.07-56.41.05-6.23.76-12.45,1.19-18.94Zm56.25,55c0-15.33.25-30.11-.11-44.88-.15-6.33-5.61-10.57-11.81-10.39s-10.68,4.82-10.75,11.39c-.12,10.48,0,21,0,31.44v12.44Z"/>
  <path d="M65.92,113.32H55.56a18.28,18.28,0,0,1-.22-3c.45-5-.27-8.81-5.34-11.94-3.15-1.94-4.5-6.8-6.1-10.86,5-.28,9.83-3.06,13.19,2.69.66,1.14,4.57,1.53,6.13.69A6.65,6.65,0,0,0,66,85.31c-.3-1.76-2.58-3.68-4.45-4.55-2.48-1.17-5.62-.91-8.08-2.09-10.68-5.13-12.79-20-3.33-26.89,4.48-3.28,5.81-6.55,5.21-11.46a20.18,20.18,0,0,1,.16-3.24H65.7a9.9,9.9,0,0,1,.38,2.25c-.28,5.22-.19,9.63,5.56,12.92C74.76,54,76,59.13,77.47,63.31c-4.94.18-9.79,3-13-3-.65-1.22-4.36-1.78-6.11-1.14-1.5.55-3.19,3.38-3,5,.22,1.88,2.19,3.77,3.81,5.18.82.71,2.58.28,3.88.53,7,1.32,11.81,5.33,13.59,12.3,1.67,6.56.1,12.88-5.56,16.39-4.8,3-5.33,6.5-5,11.11A29.42,29.42,0,0,1,65.92,113.32Z"/><path d="M44.53,135.24v-10.1h54.3v10.1Z"/><path d="M98.81,157.63H44.66v-10.2H98.81Z"/><path d="M32.59,125.31v10.14h-10V125.31Z"/><path d="M32.62,157.5H22.46V147.35H32.62Z"/></g></g></svg>