<svg id="Layer_3" data-name="Layer 3" stroke="currentColor" fill="currentColor" xmlns="http://www.w3.org/2000/svg" viewBox="0 0 500 500">
  <path d="M135.16,470.02c13.32,13.32,30.81,19.98,48.31,19.98s34.98-6.66,48.3-19.98l193.23-193.23c22.02-22.04,25.53-55.39,11.11-81.37l41.19-41.2c8.32-8.32,12.91-19.37,12.91-31.13s-4.59-22.8-12.91-31.11l-69.5-69.5c-16.62-16.65-45.63-16.62-62.23-.01l-41.37,41.37c-25.85-13.76-59.99-10.29-81.22,10.96L29.76,268.01c-26.64,26.64-26.64,69.98,0,96.61l105.4,105.4ZM371.92,48.8c3.37-3.37,6.02-3.48,9.53.01l69.5,69.52h0c1.72,1.72,1.99,3.72,1.99,4.77s-.27,3.04-1.99,4.77l-39.13,39.16-26.37-26.36,21.95-21.96c7.28-7.28,7.28-19.08,0-26.35-7.28-7.28-19.07-7.28-26.35,0l-21.96,21.96-26.35-26.34,39.16-39.17ZM56.11,294.36L249.34,101.14c5.87-5.87,13.66-9.1,21.96-9.1s16.08,3.23,21.96,9.1l52.68,52.67s0,.01.01.02.01,0,.02.01l52.7,52.69c12.11,12.11,12.11,31.8,0,43.91l-193.23,193.23c-11.77,11.75-32.18,11.73-43.92,0l-105.4-105.4c-5.87-5.87-9.1-13.67-9.1-21.97s3.23-16.08,9.1-21.96Z"/>
</svg>