<svg width="20" height="22" viewBox="0 0 20 22" fill="none" xmlns="http://www.w3.org/2000/svg">
<path d="M13.7368 1L9 5.61538L13.7368 9.97436V7.15385C17.4211 7.15385 19 11 19 11C19 6.64103 17.6842 3.82051 13.7368 3.82051V1Z" stroke="#75849D" stroke-width="1.5" stroke-linecap="round" stroke-linejoin="round"/>
<path d="M6 6.75C6.41421 6.75 6.75 6.41421 6.75 6C6.75 5.58579 6.41421 5.25 6 5.25V6.75ZM17.75 13C17.75 12.5858 17.4142 12.25 17 12.25C16.5858 12.25 16.25 12.5858 16.25 13H17.75ZM13 20.25H5V21.75H13V20.25ZM1.75 17V10H0.25V17H1.75ZM16.25 13V17H17.75V13H16.25ZM5 6.75H6V5.25H5V6.75ZM5 20.25C3.20507 20.25 1.75 18.7949 1.75 17H0.25C0.25 19.6234 2.37665 21.75 5 21.75V20.25ZM13 21.75C15.6234 21.75 17.75 19.6234 17.75 17H16.25C16.25 18.7949 14.7949 20.25 13 20.25V21.75ZM1.75 10C1.75 8.20507 3.20507 6.75 5 6.75V5.25C2.37665 5.25 0.25 7.37665 0.25 10H1.75Z" fill="#75849D"/>
</svg>
