<svg width="18" height="18" stroke="currentColor" fill="none" viewBox="0 0 18 18">
	<g>
	<path
		d="M2.77783 14.1613C3.8439 15.4141 5.27215 16.3115 6.86924 16.7322C8.46633 17.1529 10.1551 17.0765 11.707 16.5133C13.2589 15.9501 14.5989 14.9274 15.5456 13.5835C16.4923 12.2397 17.0001 10.6396 17.0001 9C17.0001 7.36036 16.4923 5.76032 15.5456 4.41647C14.5989 3.07263 13.2589 2.04989 11.707 1.48671C10.1551 0.923534 8.46633 0.847115 6.86924 1.2678C5.27215 1.68848 3.8439 2.58595 2.77783 3.83871"
		stroke-width="1.5" stroke-linecap="round" stroke-linejoin="round" />
	<path d="M1 8.99984L9 8.99984M9 8.99984L6.33333 11.6665M9 8.99984L6.33333 6.33317" stroke-width="1.5"
		stroke-linecap="round" stroke-linejoin="round" />
	</g>
</svg>