<svg width="24" height="24" viewBox="0 0 24 24" fill="none" xmlns="http://www.w3.org/2000/svg">
<path fill-rule="evenodd" clip-rule="evenodd" d="M9.00067 3.00067L6 0H0.777153C0.348736 0 0.000488281 0.382971 0.000488281 0.857855V5.13586C0.000163277 5.15318 0 5.17059 0 5.1881V21.4498C0 22.8568 1.06177 24 2.36906 24H16C18.2091 24 20 22.2137 20 20.0046V5.55124C20 4.14066 18.9393 3.00154 17.6288 3.00154L9.00067 3.00067Z" fill="#DF9557"/>
<path d="M21.6509 8C22.9487 8 24 9.11002 24 10.4846C24 11.8591 20.3775 21.5149 20.3775 21.5149C19.9823 22.5027 18.8073 24 17.5074 24H2.3481C1.05238 24 0 22.886 0 21.5149C0 20.1439 3.08747 11.4439 3.62354 10.4846C4.15961 9.52528 5.19379 8 6.49158 8" fill="#FFC993"/>
</svg>
