<svg version="1.1" id="Layer_1" stroke="currentColor" fill="currentColor" xmlns="http://www.w3.org/2000/svg" xmlns:xlink="http://www.w3.org/1999/xlink" x="0px" y="0px"
	 viewBox="0 0 100 100" style="enable-background:new 0 0 100 100;" xml:space="preserve">
<style type="text/css">
	
</style>
<path class="st0" d="M63.3,10c-14.7,0-26.7,11.9-26.7,26.7c0,2.4,0.3,4.7,0.9,6.9L10,71.1L10,90l18.9,0l27.6-27.6
	c2.2,0.6,4.5,0.9,6.9,0.9C78.1,63.3,90,51.4,90,36.7C90,21.9,78.1,10,63.3,10z M26.1,83.3l-9.4,0v-9.4l23.7-23.7
	c2.3,3.9,5.5,7.1,9.4,9.4L26.1,83.3z M63.3,56.7c-11,0-20-9-20-20c0-11,9-20,20-20c11,0,20,9,20,20C83.3,47.7,74.4,56.7,63.3,56.7z"
	/>
<path class="st0" d="M74.7,32c0,3.7-3,6.7-6.7,6.7s-6.7-3-6.7-6.7c0-3.7,3-6.7,6.7-6.7S74.7,28.3,74.7,32z"/>
</svg>
