<svg width="18" height="22" viewBox="0 0 18 22" fill="none" xmlns="http://www.w3.org/2000/svg">
<path d="M17.8406 10.6271L10.0704 8.66564L17.6839 0.354993C17.7186 0.317524 17.7386 0.268679 17.7401 0.217536C17.7417 0.166392 17.7247 0.116429 17.6923 0.0769316C17.6599 0.0374344 17.6143 0.01109 17.564 0.00279445C17.5137 -0.00550107 17.4621 0.00481661 17.4188 0.0318299L0.10026 10.6513C0.0296845 10.6945 -0.00990683 10.7757 0.00214266 10.8587C0.0124708 10.9416 0.0709971 11.009 0.151901 11.0332L7.91005 13.323L0.286167 21.6457C0.21387 21.7252 0.210427 21.8445 0.279281 21.924C0.320594 21.9741 0.37912 22 0.441089 22C0.478959 22 0.51855 21.9896 0.552977 21.9672L17.9008 11.009C17.9731 10.9641 18.011 10.8794 17.9972 10.7982C17.9834 10.7135 17.9232 10.6461 17.8406 10.6271Z" fill="currentColor"/>
</svg>
