<svg width="24" height="22" viewBox="0 0 24 22" fill="none" xmlns="http://www.w3.org/2000/svg">
<path d="M23.4447 0L13.1465 7.45289L15.0615 3.06065L23.4447 0Z" fill="#E17726"/>
<path d="M0.580078 0.00927734L8.94091 3.06168L10.7593 7.5114L0.580078 0.00927734Z" fill="#E27625"/>
<path d="M19.3002 15.8501L23.8517 15.9348L22.2611 21.2202L16.707 19.7246L19.3002 15.8501Z" fill="#E27625"/>
<path d="M4.70059 15.8501L7.28397 19.7246L1.7393 21.2203L0.158203 15.9348L4.70059 15.8501Z" fill="#E27625"/>
<path d="M10.5127 6.37793L10.6988 12.254L5.13281 12.0063L6.71597 9.67011L6.73604 9.64764L10.5127 6.37793Z" fill="#E27625"/>
<path d="M13.43 6.31104L17.2644 9.64649L17.2843 9.66887L18.8676 12.005L13.3027 12.2526L13.43 6.31104Z" fill="#E27625"/>
<path d="M7.44633 15.8667L10.4855 18.1828L6.95508 19.8499L7.44633 15.8667Z" fill="#E27625"/>
<path d="M16.5531 15.8667L17.0343 19.8503L13.5137 18.183L16.5531 15.8667Z" fill="#E27625"/>
<path d="M13.5918 17.9648L17.1643 19.6568L13.8412 21.2015L13.8757 20.1805L13.5918 17.9648Z" fill="#D5BFB2"/>
<path d="M10.4074 17.9668L10.1347 20.1651L10.1571 21.2015L6.82617 19.658L10.4074 17.9668Z" fill="#D5BFB2"/>
<path d="M9.37571 13.0195L10.3093 14.9385L7.13086 14.0278L9.37571 13.0195Z" fill="#233447"/>
<path d="M14.6248 13.0195L16.8802 14.0277L13.6914 14.9381L14.6248 13.0195Z" fill="#233447"/>
<path d="M7.68935 15.8481L7.1756 19.978L4.42188 15.9385L7.68935 15.8481Z" fill="#CC6228"/>
<path d="M16.3105 15.8481L19.5781 15.9385L16.8141 19.9782L16.3105 15.8481Z" fill="#CC6228"/>
<path d="M18.9479 11.7734L16.5699 14.1438L14.7364 13.3243L13.8586 15.1293L13.2832 12.0255L18.9479 11.7734Z" fill="#CC6228"/>
<path d="M5.05078 11.7734L10.7166 12.0256L10.141 15.1293L9.26307 13.3246L7.43935 14.1439L5.05078 11.7734Z" fill="#CC6228"/>
<path d="M4.89062 11.2861L7.58107 13.9564L7.67426 16.5926L4.89062 11.2861Z" fill="#E27525"/>
<path d="M19.1129 11.2803L16.3242 16.596L16.4292 13.9553L19.1129 11.2803Z" fill="#E27525"/>
<path d="M10.5844 11.4487L10.6926 12.1153L10.9602 13.7759L10.7882 18.8765L9.97489 14.7791L9.97461 14.7368L10.5844 11.4487Z" fill="#E27525"/>
<path d="M13.4126 11.4395L14.0239 14.7368L14.0236 14.7791L13.2083 18.8867L13.176 17.8593L13.0488 13.7457L13.4126 11.4395Z" fill="#E27525"/>
<path d="M16.667 13.8491L16.5761 16.1395L13.7378 18.3022L13.1641 17.9058L13.8072 14.6657L16.667 13.8491Z" fill="#F5841F"/>
<path d="M7.3418 13.8491L10.1918 14.6657L10.8349 17.9058L10.2612 18.3022L7.4228 16.1392L7.3418 13.8491Z" fill="#F5841F"/>
<path d="M6.2832 19.1514L9.91434 20.8341L9.89896 20.1155L10.2027 19.8547H13.7966L14.1114 20.1146L14.0882 20.8327L17.6964 19.1556L15.9406 20.5746L13.8176 22.0008H10.1737L8.05208 20.5688L6.2832 19.1514Z" fill="#C0AC9D"/>
<path d="M13.3312 17.7407L13.8446 18.0954L14.1454 20.4431L13.71 20.0836H10.2904L9.86328 20.4504L10.1543 18.0956L10.6678 17.7407H13.3312Z" fill="#161616"/>
<path d="M22.7629 0.205566L23.9991 3.8327L23.2271 7.50019L23.7768 7.91492L23.0329 8.47003L23.592 8.89238L22.8517 9.55175L23.3062 9.87369L22.1 11.2515L17.1528 9.8426L17.11 9.82014L13.5449 6.87878L22.7629 0.205566Z" fill="#763E1A"/>
<path d="M1.23619 0.205566L10.4543 6.87878L6.88914 9.82014L6.8463 9.8426L1.8991 11.2515L0.692814 9.87369L1.14694 9.55202L0.407064 8.89238L0.965065 8.47058L0.210001 7.91382L0.780471 7.49881L0 3.83289L1.23619 0.205566Z" fill="#763E1A"/>
<path d="M16.9113 9.53564L22.1531 11.0284L23.8561 16.1619H19.3632L16.2676 16.2001L18.5189 11.908L16.9113 9.53564Z" fill="#F5841F"/>
<path d="M7.08771 9.53564L5.4798 11.908L7.7314 16.2001L4.63717 16.1619H0.152344L1.84575 11.0284L7.08771 9.53564Z" fill="#F5841F"/>
<path d="M15.3182 3.03574L13.852 6.9088L13.5409 12.1409L13.4218 13.7808L13.4125 17.9701H10.5894L10.5803 13.7887L10.4608 12.1395L10.1496 6.9088L8.68359 3.03564L15.3182 3.03574Z" fill="#F5841F"/>
</svg>
