<svg id="Layer_3" data-name="Layer 3" stroke="currentColor" fill="currentColor" xmlns="http://www.w3.org/2000/svg" viewBox="0 0 500 500">
  <path d="M366.09,10h-232.17c-36.58,0-66.36,29.77-66.36,66.36v347.29c0,36.58,29.77,66.36,66.36,66.36h232.17c36.58,0,66.36-29.77,66.36-66.36V76.36c0-36.58-29.77-66.36-66.36-66.36ZM398.95,423.64c0,18.12-14.75,32.87-32.87,32.87h-232.17c-18.12,0-32.87-14.75-32.87-32.87V76.36c0-18.12,14.75-32.87,32.87-32.87h232.17c18.12,0,32.87,14.75,32.87,32.87v347.29Z"/>
  <circle cx="250" cy="400.08" r="28.53" />
  <path d="M272.33,76.98h-44.65c-9.24,0-16.74,7.5-16.74,16.74s7.5,16.74,16.74,16.74h44.65c9.24,0,16.74-7.5,16.74-16.74s-7.5-16.74-16.74-16.74Z"/>
</svg>