<?xml version="1.0" encoding="utf-8"?>
<svg version="1.1" id="Layer_1" xmlns="http://www.w3.org/2000/svg" xmlns:xlink="http://www.w3.org/1999/xlink" x="0px" y="0px"
	 viewBox="0 0 20 20" style="enable-background:new 0 0 20 20;" xml:space="preserve">
<style type="text/css">
	.st0{fill:none;stroke:currentColor;stroke-width:1.5;stroke-linecap:round;stroke-linejoin:round;}
</style>
<path class="st0" d="M18.4,6.6c-0.8-1.8-2.1-3.4-3.9-4.4c-1.7-1-3.7-1.4-5.7-1.1C6.9,1.3,5,2.2,3.6,3.6C2.2,5.1,1.3,6.9,1,8.9
	 M14.5,6.6H19V2.1"/>
<path class="st0" d="M1.6,13.4c0.8,1.8,2.1,3.4,3.9,4.4c1.7,1,3.7,1.4,5.7,1.1c2-0.3,3.8-1.2,5.2-2.6c1.4-1.4,2.3-3.2,2.6-5.2
	 M5.5,13.4H1v4.5"/>
</svg>
