<svg width="22" height="22" viewBox="0 0 22 22" fill="none" xmlns="http://www.w3.org/2000/svg">
<path d="M0.999023 11.0001L0.731339 10.2995C0.44088 10.4105 0.24902 10.6892 0.249023 11.0001C0.249026 11.3111 0.440891 11.5898 0.731352 11.7007L0.999023 11.0001ZM14.934 6.47875C15.321 6.33091 15.5148 5.89739 15.367 5.51046C15.2191 5.12353 14.7856 4.9297 14.3987 5.07754L14.934 6.47875ZM14.3987 16.9224C14.7856 17.0702 15.2191 16.8764 15.367 16.4895C15.5148 16.1025 15.321 15.669 14.934 15.5212L14.3987 16.9224ZM20.2497 4.3337C20.2497 5.76029 19.093 6.91691 17.6661 6.91691V8.41691C19.9213 8.41691 21.7497 6.58887 21.7497 4.3337H20.2497ZM17.6661 6.91691C16.2391 6.91691 15.0825 5.76029 15.0825 4.3337H13.5825C13.5825 6.58887 15.4109 8.41691 17.6661 8.41691V6.91691ZM15.0825 4.3337C15.0825 2.90711 16.2391 1.75049 17.6661 1.75049V0.250488C15.4109 0.250488 13.5825 2.07853 13.5825 4.3337H15.0825ZM17.6661 1.75049C19.093 1.75049 20.2497 2.90711 20.2497 4.3337H21.7497C21.7497 2.07853 19.9213 0.250488 17.6661 0.250488V1.75049ZM20.2497 17.667C20.2497 19.0935 19.093 20.2502 17.6661 20.2502V21.7502C19.9213 21.7502 21.7497 19.9221 21.7497 17.667H20.2497ZM17.6661 20.2502C16.2391 20.2502 15.0825 19.0935 15.0825 17.667H13.5825C13.5825 19.9221 15.4109 21.7502 17.6661 21.7502V20.2502ZM15.0825 17.667C15.0825 16.2404 16.2391 15.0837 17.6661 15.0837V13.5837C15.4109 13.5837 13.5825 15.4118 13.5825 17.667H15.0825ZM17.6661 15.0837C19.093 15.0837 20.2497 16.2404 20.2497 17.667H21.7497C21.7497 15.4118 19.9213 13.5837 17.6661 13.5837V15.0837ZM1.26671 11.7007L14.934 6.47875L14.3987 5.07754L0.731339 10.2995L1.26671 11.7007ZM0.731352 11.7007L14.3987 16.9224L14.934 15.5212L1.26669 10.2995L0.731352 11.7007Z" fill="url(#paint0_linear_278_687)"/>
<defs>
<linearGradient id="paint0_linear_278_687" x1="21" y1="1.00012" x2="1" y2="21.0001" gradientUnits="userSpaceOnUse">
<stop stop-color="#4DBAD6"/>
<stop offset="1" stop-color="#348CF4"/>
</linearGradient>
</defs>
</svg>
