<svg width="20" height="20" viewBox="0 0 20 20" fill="none" xmlns="http://www.w3.org/2000/svg">
<path d="M10 0.999999L1.6 0.999998C1.44087 0.999998 1.28826 1.06321 1.17574 1.17573C1.06322 1.28826 1 1.44087 1 1.6L1 18.4C1 18.5591 1.06321 18.7117 1.17574 18.8243C1.28826 18.9368 1.44087 19 1.6 19L18.4 19C18.5591 19 18.7117 18.9368 18.8243 18.8243C18.9368 18.7117 19 18.5591 19 18.4L19 10" stroke="#75849D" stroke-width="1.5" stroke-linecap="round" stroke-linejoin="round"/>
<path d="M19 1L14.7647 1M10 10L19 1L10 10ZM19 1L19 5.2353L19 1Z" stroke="#75849D" stroke-width="1.5" stroke-linecap="round" stroke-linejoin="round"/>
</svg>
