<svg id="nav-icon-sputnik" width="18" height="18" stroke="currentColor" fill="none" viewBox="0 0 18 18">
	<g>
	<path d="M9.81291 13.794L14.0639 15.069M2.93091 3.93604L4.20591 8.18504L2.93091 3.93604Z" stroke-width="1.5"
		stroke-linecap="round" stroke-linejoin="round" />
	<path d="M8.68311 9.31711L14.4421 3.55811" stroke-width="1.5" stroke-linecap="round" stroke-linejoin="round" />
	<path
		d="M2.5 4C3.32843 4 4 3.32843 4 2.5C4 1.67157 3.32843 1 2.5 1C1.67157 1 1 1.67157 1 2.5C1 3.32843 1.67157 4 2.5 4Z"
		stroke-width="1.5" stroke-linecap="round" stroke-linejoin="round" />
	<path
		d="M15.5 4C16.3284 4 17 3.32843 17 2.5C17 1.67157 16.3284 1 15.5 1C14.6716 1 14 1.67157 14 2.5C14 3.32843 14.6716 4 15.5 4Z"
		stroke-width="1.5" stroke-linecap="round" stroke-linejoin="round" />
	<path
		d="M15.5 17C16.3284 17 17 16.3284 17 15.5C17 14.6716 16.3284 14 15.5 14C14.6716 14 14 14.6716 14 15.5C14 16.3284 14.6716 17 15.5 17Z"
		stroke-width="1.5" stroke-linecap="round" stroke-linejoin="round" />
	<path
		d="M5.5 17C7.98528 17 10 14.9853 10 12.5C10 10.0147 7.98528 8 5.5 8C3.01472 8 1 10.0147 1 12.5C1 14.9853 3.01472 17 5.5 17Z"
		stroke-width="1.5" stroke-linecap="round" stroke-linejoin="round" />
	</g>
</svg>