<svg width="20" height="20" viewBox="0 0 20 20" fill="none" xmlns="http://www.w3.org/2000/svg">
<path d="M18.325 19H7.3C7.12098 19 6.94929 18.9289 6.8227 18.8023C6.69612 18.6757 6.625 18.504 6.625 18.325V7.3C6.625 7.12098 6.69612 6.94929 6.8227 6.8227C6.94929 6.69612 7.12098 6.625 7.3 6.625H18.325C18.504 6.625 18.6757 6.69612 18.8023 6.8227C18.9289 6.94929 19 7.12098 19 7.3V18.325C19 18.504 18.9289 18.6757 18.8023 18.8023C18.6757 18.9289 18.504 19 18.325 19Z" stroke="#75849D" stroke-width="1.5" stroke-linecap="round" stroke-linejoin="round"/>
<path d="M13 3V1.675C13 1.49598 12.9289 1.32429 12.8023 1.1977C12.6757 1.07112 12.504 1 12.325 1H1.675C1.49598 1 1.32429 1.07112 1.1977 1.1977C1.07112 1.32429 1 1.49598 1 1.675V12.325C1 12.504 1.07112 12.6757 1.1977 12.8023C1.32429 12.9289 1.49598 13 1.675 13H3" stroke="#75849D" stroke-width="1.5" stroke-linecap="round" stroke-linejoin="round"/>
</svg>
