<svg width="542" height="493" viewBox="0 0 542 493" fill="none" xmlns="http://www.w3.org/2000/svg">
<path d="M335 93L290.5 138.5L408.5 198L450 155L335 93Z" fill="#5094F5"/>
<path d="M537.4 65.3108L465.5 140.5L349 78L423.405 2.62885C424.947 1.06637 427.329 0.692934 429.275 1.70824L536.098 57.4219C539.051 58.9619 539.701 62.9039 537.4 65.3108Z" fill="#5094F5"/>
<path d="M62.4999 209.5L128.5 243.5L130.5 244.5C132.5 254.1 146 268.5 152.5 274.5L341 371C374.5 387.5 407.607 371.549 415 365.5C420.5 361 423.833 362.167 425 363C441 375 454 376.5 460 376C499 364 498.5 300.5 495 295.5C492.2 291.5 473.5 282.5 464.5 278.5C466.5 238.1 440.667 214 427.5 207C375 180.5 265.1 124.9 245.5 114.5C225.9 104.1 205.667 106.833 198 109.5L135 76.9998C116.6 66.5998 98 71 88.5 73.9998C62 83.4999 41.8333 115.5 35.9999 132.5C24.3999 174.9 48.8332 201.5 62.4999 209.5Z" fill="#2845AD"/>
<path d="M2.38492 434.729L114.188 492.324C114.968 492.726 115.919 492.573 116.533 491.946L188 419L73 357.5L1.85844 431.565C0.931462 432.53 1.19534 434.116 2.38492 434.729Z" fill="#5094F5"/>
<path d="M282.413 320.777L202.5 404L88 342L169.385 257.708C170.934 256.104 173.356 255.719 175.325 256.764L281.15 312.897C284.083 314.452 284.713 318.382 282.413 320.777Z" fill="#5094F5"/>
<path d="M443.5 316.5C425.5 351.7 439 369.5 448 374C467.6 384 487.5 359.167 495 345.5C507.8 319.1 502 299.5 493 293.5C467.4 280.3 449.333 303.333 443.5 316.5Z" fill="#5094F5"/>
<path d="M125 218.5C125 232 128.666 238.833 130.5 244.5C125 242 118.5 235.5 115.499 231C87.4998 179.5 114.555 138.975 134.5 122.5C146 113 173.5 103 185.5 103L198 109.5C190.5 111 182 115.5 177 118.5C159.8 118.1 139.999 136.833 133.499 145.5C110.5 172 117.833 204.833 125 218.5Z" fill="#5094F5"/>
</svg>
