<svg width="24" height="24" viewBox="0 0 24 24" fill="none" xmlns="http://www.w3.org/2000/svg">
<path d="M12 6C8.68627 6 6 8.68667 6 11.9991C6 15.3133 8.68627 18 12 18C15.3137 18 18 15.3133 18 11.9991C18 8.68667 15.3137 6 12 6Z" fill="#FDB434"/>
<path opacity="0.48" d="M10.6305 4.48146H13.3681C13.4947 4.48146 13.6119 4.41911 13.6855 4.3152C13.7573 4.21318 13.7743 4.07904 13.7309 3.96001L12.3611 0.253169C12.3045 0.100134 12.1609 0 11.9984 0C11.8359 0 11.6923 0.102023 11.6356 0.253169L10.2659 3.9619C10.2224 4.08093 10.2394 4.21318 10.3112 4.31709C10.3849 4.421 10.5039 4.48146 10.6305 4.48146Z" fill="#FDB434"/>
<path opacity="0.48" d="M18.2803 7.65185C18.3521 7.72554 18.4522 7.76521 18.5523 7.76521C18.5749 7.76521 18.5976 7.76332 18.6203 7.75955C18.7449 7.73687 18.8488 7.65563 18.9036 7.54039L20.5582 3.94879C20.6262 3.80143 20.5941 3.6295 20.4808 3.51425C20.3656 3.399 20.1918 3.36877 20.0445 3.4349L16.4557 5.09183C16.3405 5.14473 16.2592 5.25053 16.2366 5.37523C16.2139 5.49992 16.2555 5.62651 16.3424 5.71719L18.2803 7.65185Z" fill="#FDB434"/>
<path opacity="0.48" d="M23.7437 11.6362L20.0341 10.2683C19.9151 10.2249 19.7829 10.2419 19.679 10.3137C19.5751 10.3855 19.5146 10.5026 19.5146 10.6292L19.5165 13.3668C19.5165 13.4934 19.5789 13.6124 19.6828 13.6842C19.7489 13.7277 19.8263 13.7522 19.9037 13.7522C19.9491 13.7522 19.9944 13.7447 20.0379 13.7277L23.7475 12.3598C23.8986 12.305 24.0006 12.1595 24.0006 11.9952C23.9968 11.8365 23.8967 11.6929 23.7437 11.6362Z" fill="#FDB434"/>
<path opacity="0.48" d="M18.9036 16.458C18.8775 16.4013 18.8381 16.3518 18.7888 16.3137C18.7395 16.2755 18.6816 16.2498 18.6203 16.2388C18.4956 16.218 18.3672 16.2577 18.2803 16.3465L16.3442 18.2831C16.2555 18.3719 16.2139 18.5003 16.2366 18.625C16.2592 18.7478 16.3405 18.8555 16.4557 18.9084L20.0463 20.5635C20.0973 20.588 20.1521 20.5975 20.2088 20.5975C20.3089 20.5975 20.4071 20.5578 20.4808 20.4841C20.596 20.3689 20.6262 20.1969 20.5582 20.0496L18.9036 16.458Z" fill="#FDB434"/>
<path opacity="0.48" d="M13.3658 19.5149L10.6282 19.5168C10.5016 19.5168 10.3845 19.5791 10.3127 19.683C10.2409 19.787 10.2239 19.9192 10.2655 20.0363L11.6352 23.747C11.6919 23.8981 11.8355 24.0001 11.998 24.0001C12.1604 24.0001 12.304 23.8981 12.3607 23.747L13.7305 20.0363C13.7739 19.9173 13.7569 19.7851 13.6851 19.6812C13.6114 19.5772 13.4943 19.5149 13.3658 19.5149Z" fill="#FDB434"/>
<path opacity="0.48" d="M5.71658 16.346C5.62781 16.2572 5.50126 16.2175 5.3766 16.2383C5.25193 16.261 5.14616 16.3422 5.09327 16.4575L3.43866 20.0491C3.37066 20.1964 3.40277 20.3703 3.51799 20.4836C3.57373 20.5395 3.6453 20.5769 3.723 20.5908C3.80071 20.6047 3.8808 20.5943 3.95242 20.5611L7.54308 18.9042C7.59972 18.8781 7.64921 18.8387 7.68736 18.7893C7.72551 18.74 7.75118 18.6822 7.76219 18.6208C7.78485 18.4961 7.7433 18.3695 7.65452 18.2807L5.71658 16.346Z" fill="#FDB434"/>
<path opacity="0.48" d="M4.09706 13.754C4.1745 13.754 4.25194 13.7295 4.31805 13.6841C4.42194 13.6123 4.48427 13.4933 4.48427 13.3667L4.48238 10.6291C4.48239 10.5669 4.46738 10.5056 4.43863 10.4504C4.40988 10.3953 4.36823 10.3479 4.31723 10.3122C4.26624 10.2766 4.2074 10.2539 4.14571 10.2459C4.08403 10.2379 4.02133 10.2449 3.96295 10.2664L0.253291 11.6361C0.179014 11.6634 0.114891 11.7128 0.0695917 11.7776C0.024292 11.8425 0 11.9197 0 11.9989C0 12.078 0.024292 12.1552 0.0695917 12.2201C0.114891 12.285 0.179014 12.3344 0.253291 12.3616L3.96484 13.7295C4.00828 13.7465 4.05172 13.754 4.09706 13.754Z" fill="#FDB434"/>
<path opacity="0.48" d="M5.09368 7.54031C5.11984 7.59692 5.15927 7.64638 5.20864 7.68448C5.25801 7.72257 5.31584 7.74818 5.37722 7.75913C5.4386 7.77007 5.50172 7.76603 5.5612 7.74734C5.62069 7.72865 5.67478 7.69587 5.71888 7.65178L7.65304 5.71523C7.74182 5.62454 7.78148 5.49796 7.75882 5.37326C7.73615 5.25046 7.65493 5.14466 7.53971 5.09176L3.94716 3.43671C3.79983 3.3687 3.62795 3.40082 3.51273 3.51606C3.39751 3.63131 3.36729 3.80324 3.43529 3.95061L5.09368 7.54031Z" fill="#FDB434"/>
</svg>
