<svg xmlns="http://www.w3.org/2000/svg" viewBox="0 0 468.43 467.33"><defs><style>.cls-1{stroke:currentColor;fill:currentColor;stroke-miterlimit:10;stroke-width:16px;}</style></defs><g id="Layer_2" data-name="Layer 2"><g id="Layer_1-2" data-name="Layer 1"><path stroke-width="1.5" stroke-linecap="round"
  stroke-linejoin="round" class="cls-1" d="M211.25,459.33c-9.77-2-19.63-3.4-29.36-5.63-37.55-8.61-70.35-26.13-98.9-51.86A220.89,220.89,0,0,1,16.4,293.59c-6.1-22.47-9.47-45.39-8.1-68.65,3-51.39,19.89-97.55,53.64-137C98.76,44.85,145.23,18.6,201.19,10.58c64.53-9.25,123.2,6.34,174.34,46.92,43.4,34.43,70.65,79.44,80.65,134,13.11,71.57-4.14,135.58-51.44,190.84C368.51,424.7,322,449.17,267,457.59c-2.94.45-5.84,1.15-8.76,1.74Zm-191-225.08a154.51,154.51,0,0,0,1.43,26.44,215.37,215.37,0,0,0,79.34,141c3.12,2.49,4.2,2,5.29-1.74a215.87,215.87,0,0,1,7-20.84c19.83-48.59,51-88.7,91.91-121.27,3.73-3,3.88-4.71.85-8.22-10.23-11.84-20.15-24-30.17-36-6.61-7.93-6.61-8,3.54-10,28.91-5.76,55.72-17,81.12-31.63,43-24.81,80-56.21,107.39-98.21,2.58-4,2.2-5.94-1.51-8.74C317,27.88,261.72,13,200.48,22.59,148,30.81,104.36,55.65,70.32,96.28,37,136,20.39,182.27,20.27,234.25Zm428-1.56a165.45,165.45,0,0,0-1.4-27.39c-4.14-28-12.84-54.39-27.17-78.86a209.28,209.28,0,0,0-42.49-52c-4.31-3.78-4.41-3.6-5.89,1.73A155.54,155.54,0,0,1,362.4,101a331.44,331.44,0,0,1-89,114.7c-3,2.45-2.78,4-.47,6.8,10.92,13.44,21.62,27.07,32.33,40.68,3.69,4.69,3.58,4.81-2.37,6.53-43.52,12.65-84.43,30.9-121.62,57-28.36,19.92-53.12,43.34-70.69,73.65-3.53,6.08-3.63,6.08,2.27,10.11A213.79,213.79,0,0,0,221,448a210.28,210.28,0,0,0,81.69-10.84C390.56,407.49,449.45,324.25,448.29,232.69Z"/></g></g></svg>