<svg xmlns="http://www.w3.org/2000/svg" xmlns:xlink="http://www.w3.org/1999/xlink" viewBox="0 0 3323.81 3322.1"><defs><style>.cls-1{fill:url(#linear-gradient);}.cls-2{fill:url(#linear-gradient-2);}</style><linearGradient id="linear-gradient" x1="875.93" y1="282.43" x2="2351.46" y2="2838.11" gradientUnits="userSpaceOnUse"><stop offset="0" stop-color="#3ef8f3"/><stop offset="1" stop-color="#07aefe"/></linearGradient><linearGradient id="linear-gradient-2" x1="780.05" y1="133.63" x2="2441.57" y2="3011.47" xlink:href="#linear-gradient"/></defs><g id="Layer_2" data-name="Layer 2"><g id="Layer_2-2" data-name="Layer 2"><path class="cls-1" d="M1501.35,1800.1l-270.71-323.55c459.17-61.65,1078.9-446.82,1353.46-928.29-61.87,358.24-440.85,832-692.18,1013l261,327.31C1625.07,2027.27,1027.6,2362.4,795.61,2836.09,890.34,2358.49,1304.12,1931,1501.35,1800.1Z"/><path class="cls-2" d="M1661.91,3322.1c-224.34,0-442-43.93-646.9-130.55a1666,1666,0,0,1-884.39-883.93C44,2102.81,0,1885.27,0,1661.05s44-441.77,130.62-646.58A1666.37,1666.37,0,0,1,1015,130.55C1219.93,43.92,1437.57,0,1661.91,0s442,43.92,646.89,130.55a1666.08,1666.08,0,0,1,884.39,883.92c86.67,204.81,130.62,422.35,130.62,646.58s-43.95,441.76-130.62,646.57a1666.35,1666.35,0,0,1-884.39,883.93C2103.89,3278.17,1886.24,3322.1,1661.91,3322.1Zm0-3074.26c-779.68,0-1414,634-1414,1413.21s634.31,1413.21,1414,1413.21,1414-634,1414-1413.21S2441.58,247.84,1661.91,247.84Z"/></g></g></svg>
