<svg width="104" height="89" viewBox="0 0 104 89" fill="none" xmlns="http://www.w3.org/2000/svg">
<path opacity="0.4" fill-rule="evenodd" clip-rule="evenodd" d="M63.0734 28.29V14.3218L80.5042 17.2629L88.0998 15.6518C91.7555 14.8764 94.3702 11.649 94.3702 7.91199C94.3702 3.54232 90.8278 0 86.4582 0H25.7631C20.3453 0 15.1295 2.05664 11.1697 5.7543C15.0385 11.1333 21.2595 14.3218 27.8853 14.3218H48.6287V28.29C28.2598 29.2536 7.70211 31.4568 7.70211 37.83C1.15435 39.5128 3.24067 43.6076 7.318 45.6144C15.0014 49.3962 35.3215 51.8806 48.6287 52.5133V85.9308V88.9998H55.7621C56.0752 88.9998 56.3848 88.9335 56.6705 88.8053C60.5666 87.0562 63.0734 83.1831 63.0734 78.9124V52.5133C83.4098 51.5497 104 45.9712 104 38.5972C104 31.8262 83.4098 29.2584 63.0734 28.29ZM64.943 45.624V45.6144C64.4337 45.6526 59.4646 45.8137 55.9529 45.8148C52.3887 45.816 47.9859 45.6717 46.8285 45.6144V45.6288C28.8298 44.813 11.9564 41.5835 11.9564 37.7195C11.9564 33.8602 30.63 31.8606 48.6287 31.0306L48.5333 45.2671C50.074 46.418 59.8885 45.2287 63.0734 40.5785L63.1697 32.6077C81.1313 33.433 94.3529 36.1667 94.3529 40.0212C94.3529 43.8852 82.9046 44.8035 64.943 45.624Z" fill="#5CB5F5"/>
<path fill-rule="evenodd" clip-rule="evenodd" d="M55.3713 31.3593V17.3911H79.5072C83.462 17.3911 86.6681 14.1851 86.6681 10.2302C86.6681 6.27538 83.462 3.06934 79.5072 3.06934H16.7907C12.8358 3.06934 9.62979 6.27538 9.62979 10.2302C9.62979 14.1851 12.8358 17.3911 16.7907 17.3911H40.9266V31.3593C20.5577 32.3229 0 34.8956 0 41.6665C0 49.0406 20.5577 54.6142 40.9266 55.5826V81.7778C40.9266 85.7666 44.1601 89.0002 48.1489 89.0002C52.1377 89.0002 55.3713 85.7666 55.3713 81.7778V55.5826C75.7078 54.619 96.2979 49.0406 96.2979 41.6665C96.2979 34.8956 75.7078 32.3277 55.3713 31.3593ZM57.2409 48.6933V48.6838C56.7316 48.7219 51.7625 48.883 48.2508 48.8841C44.6866 48.8853 40.2838 48.741 39.1264 48.6838V48.6981C21.1277 47.8824 4.25432 44.6528 4.25432 40.7888C4.25432 36.9295 22.9279 34.93 40.9266 34.0999V43.6478C40.9266 43.6478 43.4919 46.0348 48.1489 46.0348C53.7365 46.0348 55.3713 43.6478 55.3713 43.6478V34.0999C73.3329 34.9252 92.0435 36.9343 92.0435 40.7888C92.0435 44.6528 75.2025 47.8728 57.2409 48.6933Z" fill="#5CB5F5"/>
</svg>
