<?xml version="1.0" encoding="UTF-8" ?>
<svg id="a" xmlns="http://www.w3.org/2000/svg" viewBox="0 0 484 484"><defs
  ><style
    >.b{stroke:currentColor;stroke-miterlimit:10;stroke-width:16px;}</style></defs><path
    class="b"
    d="M457.64,150.93c-11.79-27.86-28.66-52.89-50.14-74.38-4.1-4.1-8.33-8.04-12.68-11.79-.49-.41-.97-.83-1.46-1.24-18.1-15.38-38.29-27.82-60.26-37.11-28.85-12.22-59.51-18.4-91.1-18.4s-62.23,6.19-91.08,18.39c-27.87,11.79-52.9,28.65-74.38,50.14-21.49,21.49-38.36,46.52-50.14,74.38-12.21,28.87-18.39,59.5-18.39,91.1s6.18,62.23,18.39,91.08c11.79,27.86,28.66,52.89,50.14,74.38,3.48,3.48,7.06,6.84,10.72,10.07,.69,.61,1.39,1.22,2.08,1.82,18.43,15.9,39.08,28.74,61.57,38.25,28.85,12.2,59.51,18.39,91.08,18.39s62.23-6.19,91.08-18.39c27.87-11.78,52.9-28.65,74.38-50.14,21.49-21.49,38.36-46.52,50.14-74.38,12.2-28.85,18.39-59.5,18.39-91.08,.02-31.59-6.17-62.23-18.36-91.08ZM242,463.41c-52.82,0-101.38-18.59-139.47-49.57l231.93-97.66-79.42-80.63-.03,.03-.16-.16L95.87,408.19c-46.12-40.61-75.27-100.06-75.27-166.19C20.6,119.93,119.92,20.61,242,20.61c52.18,0,100.19,18.15,138.08,48.45l-204.69,85.85,79.47,80.49,.03-.03,.16,.16L386.72,74.58c46.95,40.63,76.7,100.62,76.7,167.42,0,122.08-99.32,221.4-221.41,221.4Zm-114.63-72.49l127.81-138.9,59.24,60.15-187.05,78.75ZM359.01,90.36l-104.8,128.08-58.74-59.49,163.54-68.59Z"
  /></svg>
