<svg width="24" height="23" viewBox="0 0 24 23" fill="none" xmlns="http://www.w3.org/2000/svg">
<path d="M4.91118 2.9309C8.82508 -0.976966 15.1704 -0.976966 19.0843 2.9309L19.5555 3.40085C19.7515 3.59677 19.7515 3.91316 19.5555 4.10776L16.9445 6.71618C16.8471 6.81414 16.6875 6.81414 16.5901 6.71618L15.9423 6.06884C13.2124 3.34313 10.7857 3.34313 8.05441 6.06884L7.35991 6.76251C7.26255 6.86047 7.10288 6.86047 7.00552 6.76251L4.39453 4.15409C4.19851 3.95817 4.19851 3.64178 4.39453 3.44718L4.91118 2.9309ZM21.4166 9.25762L23.851 10.69C24.0471 10.8859 24.0471 11.2023 23.851 11.3969L17.385 21.8544C17.189 22.0503 16.8722 22.0503 16.6762 21.8544L12.0873 15.2727C12.038 15.2237 11.9588 15.2237 11.9108 15.2727L7.32183 21.8544C7.12581 22.0503 6.80906 22.0503 6.61305 21.8544L0.147014 11.3982C-0.0490048 11.2023 -0.0490048 10.8859 0.147014 10.6913L2.58146 9.25894C2.77748 9.06302 3.09422 9.06302 3.29024 9.25894L6.87916 15.8419C6.92849 15.8909 7.00768 15.8909 7.05571 15.8419L11.6446 9.25894C11.8407 9.06302 12.1574 9.06302 12.3534 9.25894L16.9423 15.8419C16.9917 15.8909 17.0709 15.8909 17.1189 15.8419L20.7078 9.26026C20.9038 9.06302 21.2219 9.06302 21.4166 9.25762Z" fill="#3A99FB"/>
</svg>
