<svg width="24" height="18" viewBox="0 0 24 18" fill="none" xmlns="http://www.w3.org/2000/svg">
<path d="M4.91158 2.39786C8.82579 -0.799288 15.1716 -0.799288 19.0858 2.39786L19.5571 2.78234C19.7531 2.94264 19.7531 3.20148 19.5571 3.36069L16.9459 5.49472C16.8485 5.57487 16.6888 5.57487 16.5915 5.49472L15.9436 4.96511C13.2134 2.73512 10.7866 2.73512 8.05507 4.96511L7.36051 5.53263C7.26314 5.61278 7.10345 5.61278 7.00609 5.53263L4.39488 3.3986C4.19885 3.23831 4.19885 2.97946 4.39488 2.82025L4.91158 2.39786ZM21.4183 7.57395L23.853 8.74581C24.049 8.9061 24.049 9.16495 23.853 9.32416L17.3864 17.8798C17.1904 18.0401 16.8736 18.0401 16.6776 17.8798L12.0883 12.4951C12.0389 12.455 11.9598 12.455 11.9117 12.4951L7.32242 17.8798C7.12639 18.0401 6.80962 18.0401 6.61358 17.8798L0.147026 9.32524C-0.0490087 9.16495 -0.0490087 8.9061 0.147026 8.74689L2.58167 7.57504C2.7777 7.41475 3.09447 7.41475 3.29051 7.57504L6.87972 12.9608C6.92906 13.0009 7.00825 13.0009 7.05628 12.9608L11.6456 7.57504C11.8416 7.41475 12.1584 7.41475 12.3544 7.57504L16.9437 12.9608C16.993 13.0009 17.0722 13.0009 17.1203 12.9608L20.7095 7.57612C20.9055 7.41475 21.2236 7.41475 21.4183 7.57395Z" fill="#3A99FB"/>
</svg>
