<?xml version="1.0" encoding="UTF-8"?>
<svg version="1.0" viewBox="0 0 300 200" xmlns="http://www.w3.org/2000/svg" xmlns:cc="http://web.resource.org/cc/" xmlns:dc="http://purl.org/dc/elements/1.1/" xmlns:rdf="http://www.w3.org/1999/02/22-rdf-syntax-ns#">
<rect y="-5.6843e-14" width="300" height="200" fill="#fff" stroke="#000"/>
<g display="none" fill="none" stroke-width="1px">
<path d="m0-2.8422e-14 300 200" stroke="#000"/>
<path d="m300-2.8422e-14 -300 200" stroke="#000"/>
<path d="m87.694 58.447 20.766 13.849" stroke="#f0f"/>
<path d="m191.66 127.74 20.77 13.85" stroke="#f0f"/>
<path d="m88.06 141.33 20.77-13.85" display="inline" stroke="#f0f"/>
<path d="m191.29 72.487 20.77-13.849" display="inline" stroke="#f0f"/>
</g>
<g fill-rule="evenodd">
<path transform="matrix(-.83195 -.55484 .55484 -.83195 122.02 412.35)" d="m200 275a50 50 0 1 1-100 0" fill="#c60c30"/>
<path transform="matrix(.83195 .55484 -.55484 .83195 101.87 -323.3)" d="m325 325a50 50 0 1 1-100 0" fill="#003478"/>
<path transform="matrix(-.83195 -.55484 .55484 -.83195 94.258 363.74)" d="m100 250a25 25 0 1 1-50 0" fill="#003478"/>
<path transform="matrix(.83195 .55484 -.55484 .83195 143.92 -206.21)" d="m175 250a25 25 0 1 1-50 0" fill="#c60c30"/>
</g>
<g fill-rule="evenodd">
<rect transform="matrix(-.55484 .83195 -.83195 -.55484 0 0)" x="-25.014" y="-80.384" width="49.92" height="8.32"/>
<rect transform="matrix(-.55484 .83195 -.83195 -.55484 0 0)" x="-25.014" y="-105.34" width="49.92" height="8.32"/>
<rect transform="matrix(-.55484 .83195 -.83195 -.55484 0 0)" x="-25.014" y="-92.864" width="49.92" height="8.32"/>
<rect transform="matrix(-.55484 .83195 -.83195 -.55484 0 0)" x="-24.987" y="-276.27" width="22.88" height="8.32"/>
<rect transform="matrix(-.55484 .83195 -.83195 -.55484 0 0)" x="2.0531" y="-276.27" width="22.88" height="8.32"/>
<rect transform="matrix(-.55484 .83195 -.83195 -.55484 0 0)" x="-24.987" y="-288.75" width="22.88" height="8.32"/>
<rect transform="matrix(-.55484 .83195 -.83195 -.55484 0 0)" x="-24.987" y="-263.79" width="22.88" height="8.32"/>
<rect transform="matrix(-.55484 .83195 -.83195 -.55484 0 0)" x="2.0531" y="-263.79" width="22.88" height="8.32"/>
<rect transform="matrix(-.55484 .83195 -.83195 -.55484 0 0)" x="2.0531" y="-288.75" width="22.88" height="8.32"/>
<rect transform="matrix(.55484 .83195 -.83195 .55484 0 0)" x="141.52" y="-152.2" width="22.88" height="8.32"/>
<rect transform="matrix(.55484 .83195 -.83195 .55484 0 0)" x="168.56" y="-152.2" width="22.88" height="8.32"/>
<rect transform="matrix(.55484 .83195 -.83195 .55484 0 0)" x="168.56" y="-177.16" width="22.88" height="8.32"/>
<rect transform="matrix(.55484 .83195 -.83195 .55484 0 0)" x="141.52" y="-177.16" width="22.88" height="8.32"/>
<rect transform="matrix(.55484 .83195 -.83195 .55484 0 0)" x="141.52" y="-164.68" width="49.92" height="8.32"/>
<rect transform="matrix(-.55484 -.83195 .83195 -.55484 0 0)" x="-191.37" y="-25.972" width="22.88" height="8.32"/>
<rect transform="matrix(-.55484 -.83195 .83195 -.55484 0 0)" x="-164.33" y="-25.972" width="22.88" height="8.32"/>
<rect transform="matrix(-.55484 -.83195 .83195 -.55484 0 0)" x="-191.37" y="-38.452" width="49.92" height="8.32"/>
<rect transform="matrix(-.55484 -.83195 .83195 -.55484 0 0)" x="-191.37" y="-13.492" width="49.92" height="8.32"/>
</g>
<metadata>
<rdf:RDF>
<cc:Work>
<dc:format>image/svg+xml</dc:format>
<dc:type rdf:resource="http://purl.org/dc/dcmitype/StillImage"/>
<cc:license rdf:resource="http://creativecommons.org/licenses/publicdomain/"/>
<dc:publisher>
<cc:Agent rdf:about="http://openclipart.org/">
<dc:title>Openclipart</dc:title>
</cc:Agent>
</dc:publisher>
<dc:title>South Korean Flag</dc:title>
<dc:date>2007-11-08T22:56:42</dc:date>
<dc:description>South Korean Flag</dc:description>
<dc:source>https://openclipart.org/detail/8034/south-korean-flag-by-jp_draws</dc:source>
<dc:creator>
<cc:Agent>
<dc:title>jp_draws</dc:title>
</cc:Agent>
</dc:creator>
<dc:subject>
<rdf:Bag>
<rdf:li>flag</rdf:li>
<rdf:li>korea</rdf:li>
<rdf:li>korean</rdf:li>
<rdf:li>south korea</rdf:li>
<rdf:li>south korean</rdf:li>
<rdf:li>taegeukgi</rdf:li>
<rdf:li>taegukgi</rdf:li>
</rdf:Bag>
</dc:subject>
</cc:Work>
<cc:License rdf:about="http://creativecommons.org/licenses/publicdomain/">
<cc:permits rdf:resource="http://creativecommons.org/ns#Reproduction"/>
<cc:permits rdf:resource="http://creativecommons.org/ns#Distribution"/>
<cc:permits rdf:resource="http://creativecommons.org/ns#DerivativeWorks"/>
</cc:License>
</rdf:RDF>
</metadata>
</svg>
