<svg width="11" height="14" fill="none" xmlns="http://www.w3.org/2000/svg"><path fill-rule="evenodd" clip-rule="evenodd" d="M5.042 0L3.876.343l.55 1.921c-.309.088-.62.188-.924.283L2.955.613 1.79.956l.556 1.97c-.253.077-.494.156-.74.228L0 3.621l.364 1.282s.86-.267.85-.25c.472-.142.709.097.818.328l.405 1.448.351 1.26.762 2.714c.017.159.006.43-.325.53.016.012-.85.251-.85.251l.166 1.496 1.516-.446c.281-.081.567-.156.84-.234l.562 2 1.167-.343-.562-1.98-.383-1.46-.745-2.651c.133-.036.269-.085.417-.13.467-.151.918-.366 1.357-.583.274-.13.532-.273.792-.427.384-.24.73-.537 1.025-.883.25-.285.534-.632.621-1.022.104-.452.016-.916-.149-1.336C8.466 1.8 7.137 1.67 5.6 1.97L5.042 0zm3.434 6.303a6.53 6.53 0 01-.664.51l-.386.259c.535.042.982.273 1.148.86.314 1.102-.98 1.69-2 2.02l.415 1.464.016.063.548 1.903 1.159-.339-.563-1.998c1.923-.687 3.158-1.597 2.784-3.55-.22-1.21-.914-1.844-1.714-2.013-.003.012-.019.022-.022.034a5.157 5.157 0 01-.721.787zM6.983 4.358c.384 1.356-1.732 1.807-2.391 1.998L3.913 3.95c.664-.183 2.67-1.013 3.07.407z" fill="#76C85A"/></svg>