<svg width="10" height="14" fill="none" xmlns="http://www.w3.org/2000/svg"><path fill-rule="evenodd" clip-rule="evenodd" d="M8.143.84L6.995.539l-.449 1.943c-.303-.082-.613-.155-.915-.228L6.088.301 4.94 0l-.467 1.99c-.25-.064-.491-.12-.733-.183l-1.58-.42-.303 1.296s.855.21.838.22c.466.118.553.446.536.702l-.346 1.46-.302 1.269-.648 2.738c-.06.146-.198.374-.526.292.008.018-.838-.22-.838-.22L0 10.525l1.493.391c.277.074.554.155.822.228l-.476 2.018 1.149.3.467-1.998.37-1.46.631-2.675c.13.037.268.065.415.101.466.11.95.155 1.424.192.294.027.58.036.872.036.438-.01.872-.09 1.287-.238.346-.118.751-.273 1.01-.565.303-.338.45-.784.51-1.232.207-1.47-.855-2.263-2.297-2.793L8.143.84zM8.05 8.05c-.32.055-.484.082-.804.1l-.449.027c.432.31.7.74.561 1.332-.258 1.114-1.632.96-2.65.721l-.346 1.48-.017.063-.44 1.926 1.14.301.474-2.017c1.952.392 3.429.238 4.041-1.643.39-1.159.104-2.063-.492-2.619-.008.01-.026.01-.034.018a4.78 4.78 0 01-.984.311zM7.71 5.603c-.319 1.37-2.322.676-2.97.502l.57-2.427c.648.183 2.738.493 2.4 1.926z" fill="#E98566"/></svg>