<svg width="16" height="15" fill="none" xmlns="http://www.w3.org/2000/svg"><path opacity=".32" fill-rule="evenodd" clip-rule="evenodd" d="M6.997 12.192c.42 1.62 1.929 2.855 2.69 2.805.027-.002 2.889-.558 4.455-3.284 1.22-2.121.804-4.17-.854-4.214-.597.045-7.092 1.608-6.29 4.693zM8.437 0a7.36 7.36 0 00-3.031.652c-.163.069-.32.147-.474.235-.105.057-.21.113-.311.174l.024.008a3.427 3.427 0 00-.789.756C1.712 4.694 8.9 6.779 12.743 6.787c1.77 1.285 2.265-3.62.538-4.981A7.369 7.369 0 008.438 0z" fill="#5493F7"/><path fill-rule="evenodd" clip-rule="evenodd" d="M5.733 1.682c-.972 1.442-4.21 2.46-4.742 2.3l-.003-.005.067-.13A7.732 7.732 0 013.982.78C4.434.522 4.899.506 5.052.5c1.441.027.689 1.17.68 1.182M4.92 12.493c.072.474-.002 2.347-.1 2.505-.083.005-.258.016-.764-.267a8.075 8.075 0 01-2.506-2.23A7.954 7.954 0 010 7.771a7.946 7.946 0 01.494-2.77h.001c.58.768 1.25 1.463 1.819 2.238.543.738 1.289 1.942 1.44 2.2.943 1.595 1.094 2.58 1.166 3.054zM16 7.609a7.982 7.982 0 01-.542 2.9C14.54 11.51 8.35 9.05 8.29 9.023c-.846-.376-3.423-1.52-3.655-3.317C4.3 3.12 9.475 1.318 11.749 1.25c.272.003 1.102.013 1.586.412a7.885 7.885 0 011.97 2.682A7.96 7.96 0 0116 7.608v.001zm-5.412 6.394c.37-1.324 3.606-2.68 4.32-2.753.088-.01.126.053.087.125-.745 1.369-1.848 2.496-3.182 3.227-.675.33-1.418.09-1.225-.6z" fill="#5493F7"/></svg>